<svg width="72" height="43" viewBox="0 0 72 43" fill="none" xmlns="http://www.w3.org/2000/svg">
<path d="M61.482 26.3064L60.1442 25.9527C60.1525 26.0048 60.1606 26.0585 60.1684 26.1137L61.482 26.3064ZM56.7134 21.0822L55.1318 20.602C55.1942 20.6634 55.2556 20.7257 55.3158 20.7887L56.7134 21.0822ZM60.1594 30.1758L59.9314 30.1335L59.92 30.1518L60.1594 30.1758ZM57.2509 33.9589L57.1677 33.947V33.9533L57.2509 33.9589ZM51.0156 15.334L38.7435 11.257C39.3154 11.7402 39.8619 12.2419 40.3505 12.7347L50.4656 15.3012C50.6502 15.3107 50.8343 15.3215 51.0156 15.334Z" stroke="#222222"/>
<mask id="path-2-inside-1_90_1530" fill="white">
<path d="M5.12232 18.6648C4.90315 18.6836 4.68919 18.6752 4.48829 18.6231C3.74989 18.4332 2.84191 17.6029 3.11326 16.9521C3.38461 16.3012 5.75374 14.8451 9.06999 14.2464C10.9434 13.9084 13.4012 13.898 15.8538 14.5113C15.9504 14.1003 16.4018 13.51 16.6 13.2659C16.4905 13.2367 16.3783 13.2054 16.2687 13.1741C16.2687 13.1741 16.2791 13.1741 16.2843 13.1741C14.2361 12.6734 13.0725 10.5205 13.6699 8.22371C14.0378 6.80514 14.9954 5.65568 16.1721 5.02359C15.7208 4.68146 15.3685 4.4353 15.2355 4.39358C15.0685 4.34142 14.3849 4.31013 13.7691 4.2997C13.7091 4.52083 13.5891 4.68981 13.4143 4.79203C13.1559 4.94431 12.4019 5.11538 11.7757 5.03819C11.5461 5.00899 11.3321 4.9464 11.1652 4.83584C11.0843 4.7816 11.0216 4.71275 10.9721 4.63557C9.63879 4.66686 7.02962 4.66269 6.92004 4.65851C6.77914 4.65434 6.55736 4.22669 6.52866 3.9534C6.50257 3.68012 6.54954 3.34008 6.70609 3.26915C6.70609 3.26915 9.37265 3.08557 10.9695 3.08557C10.9799 3.0522 10.9903 3.0209 10.9956 3.00213L11.0269 2.9458C11.0582 2.90825 11.3478 2.58073 12.1384 2.56196C12.3732 2.5557 12.5898 2.58282 12.7881 2.63288C12.5037 2.25112 12.2245 1.88814 12.1514 1.81929C12.1045 1.79426 11.9453 1.76088 11.7261 1.72333C11.4939 2.05294 11.019 2.345 10.0745 2.38463C9.86317 2.39298 9.67532 2.38463 9.50833 2.36586C8.59773 2.25112 8.3316 1.73376 8.27942 1.28107C8.27942 1.2769 8.27942 1.27064 8.27942 1.26647C8.27159 0.924344 8.59512 0.22549 9.86839 0.0377386C10.7451 -0.0916014 11.2486 0.135787 11.5148 0.352744C11.8279 0.605166 11.9818 0.984841 11.9062 1.32279C11.9062 1.33322 11.9009 1.34574 11.8983 1.35617C12.2323 1.42084 12.441 1.48968 12.5219 1.56479C12.6915 1.72333 13.4116 2.7059 13.6308 3.00839C14.3066 3.01465 15.4285 3.04385 15.8173 3.17111C16.0808 3.25664 16.9053 3.87204 17.735 4.525C17.8577 4.5104 17.9803 4.50206 18.1055 4.49997C18.343 4.4958 18.5804 4.5104 18.8178 4.55004C18.8178 4.55004 22.8099 5.31356 25.1529 6.34619C25.7817 6.62365 26.2905 6.91571 26.7054 7.22028C27.749 6.55898 30.9322 4.56047 31.5271 4.4353C31.9994 4.33517 33.3013 4.4353 34.0841 4.50831C34.392 4.18914 35.4043 3.15024 35.6287 2.98753C35.7331 2.91243 35.9888 2.85819 36.388 2.82272C36.388 2.8102 36.3854 2.79769 36.3828 2.78309C36.3567 2.38881 36.6045 1.97158 37.0116 1.71916C37.3586 1.50429 37.9822 1.30193 38.9737 1.55435C40.4113 1.92151 40.6592 2.75805 40.5887 3.15024C40.5887 3.1565 40.5887 3.16067 40.5861 3.16693C40.4452 3.67803 40.0434 4.2392 38.9684 4.26215C38.7727 4.26632 38.5536 4.25172 38.3083 4.21626C37.2229 4.0598 36.7272 3.6676 36.5184 3.26498C36.2601 3.27958 36.0697 3.30044 36.0096 3.32339C35.9105 3.39432 35.5243 3.77608 35.1251 4.18079C35.3626 4.14533 35.6209 4.14116 35.8896 4.17453C36.8002 4.28927 37.0768 4.70024 37.1055 4.74613L37.1316 4.81497C37.1368 4.84001 37.142 4.87547 37.1472 4.91511C38.9945 5.10495 42.0446 5.63065 42.0446 5.63065C42.2116 5.7287 42.209 6.12506 42.1255 6.43381C42.0446 6.74256 41.7107 7.20359 41.5463 7.19316C41.4211 7.18482 38.4022 6.88024 36.8654 6.68623C36.795 6.76968 36.7089 6.84061 36.6045 6.89276C36.3932 6.99915 36.1349 7.04713 35.8635 7.05131C35.1251 7.06799 34.285 6.78219 34.0136 6.57567C33.831 6.4359 33.724 6.22937 33.6927 5.9686C32.9804 5.91019 32.182 5.86221 31.9811 5.90393C31.5793 5.98321 29.3902 7.33293 27.8351 8.34679C27.8508 8.34679 27.8638 8.34053 27.8821 8.34053C27.9891 8.34471 30.546 8.44693 32.8134 9.49834C35.1017 10.5602 38.5666 13.4203 39.7486 15.1935C40.0565 15.2665 43.3127 16.0363 44.8078 16.3367C44.8156 16.3367 44.8365 16.345 44.8469 16.3471C44.8469 16.3471 45.0635 16.4076 45.7105 16.368C46.1019 16.345 51.589 16.368 52.1186 16.7289C52.6092 17.0647 52.8988 17.5174 52.9536 18.0389L52.9588 18.1015C53.0136 18.6168 53.0553 19.0236 52.5205 19.2093C52.3195 19.2781 52.0038 19.2927 51.6046 19.3094C51.208 19.3261 50.7253 19.349 50.4357 19.4387C51.6907 19.8664 53.6685 21.1118 54.5399 22.6681C54.6652 22.8892 54.7878 23.1625 54.9131 23.4671C56.1342 23.4712 56.2855 23.5276 56.3377 23.5463C56.6299 23.6548 58.1093 25.4092 58.1693 25.5115C58.3154 25.7618 58.6703 28.7825 58.1354 29.6003C58.1067 29.6503 57.8353 30.0613 56.8125 30.0822C56.7917 30.0822 56.7682 30.0822 56.7473 30.0822C56.9117 30.5495 57.11 30.7706 57.1569 30.9417C57.2196 31.1607 57.0865 31.338 56.3559 31.6405C55.8289 31.8575 55.354 31.8116 55.127 31.7678C55.1922 32.3456 55.2209 32.9381 55.2079 33.5451C55.1975 33.9311 55.1661 34.3108 55.1244 34.6863C55.2601 34.7947 55.3749 34.9262 55.4636 35.0785C57.1152 35.3038 57.17 35.358 57.243 35.4394C57.3265 35.5332 57.3213 35.6501 57.2222 35.867C57.1622 36.0005 56.8256 36.6723 56.2229 36.7974C56.202 36.8016 56.1811 36.8037 56.1602 36.8037C56.155 36.8037 56.1472 36.8037 56.142 36.8037C56.1159 36.8037 55.6619 36.787 55.1844 36.7411C55.007 36.9205 54.7956 37.0624 54.5921 37.1625C53.4467 40.6296 50.848 43.0433 47.8866 42.9953C44.8495 42.9473 42.3264 40.3272 41.4054 36.6889C40.5966 36.7536 38.457 36.8871 37.7969 36.57C36.9776 36.1778 36.8498 35.6813 36.8498 35.6813C36.8498 35.6813 29.2936 35.4623 28.37 35.2766C27.4464 35.091 26.8175 34.8698 26.4131 33.7663C26.1548 33.057 25.8913 32.1558 25.7086 31.1357C25.6956 31.3401 25.6747 31.5216 25.646 31.6718C25.3668 33.2009 25.4086 34.4025 25.3564 35.0472C25.3042 35.6939 24.7224 36.9351 23.8953 37.3941C23.1308 37.8155 22.1106 37.9928 21.8079 37.8593C19.6893 40.9175 16.3652 42.916 12.5663 42.9974C5.87637 43.1413 0.253616 37.2918 0.00835419 29.9341C-0.148197 25.259 1.90522 21.1035 5.13797 18.6564L5.12232 18.6648ZM9.9545 0.423673C9.40657 0.505032 9.11435 0.686525 8.95258 0.859674C8.95258 0.989014 8.98128 1.15173 9.09608 1.24561C9.25524 1.37495 9.89188 1.37078 10.3354 1.23309C10.3746 1.2018 10.4268 1.18302 10.4842 1.17885C10.5494 1.14965 10.6068 1.11835 10.6538 1.0808C10.8807 0.903482 10.946 0.659405 10.9616 0.505032C10.7059 0.392381 10.3615 0.363175 9.9545 0.423673ZM13.2968 3.57581C13.2212 3.12938 12.668 2.94163 12.154 2.95415C11.8253 2.96249 11.6322 3.03759 11.5278 3.096C11.5644 3.096 11.6009 3.10018 11.6374 3.10226C11.7966 3.11061 11.9401 3.17736 12.0314 3.28376C12.1253 3.39432 12.2193 3.55287 12.214 3.7427C12.2062 4.11404 11.9557 4.51874 11.7339 4.59385C11.7209 4.59802 11.687 4.60219 11.64 4.60636C11.7914 4.65434 11.9818 4.66895 12.1749 4.66269C12.2793 4.57298 12.3784 4.46659 12.4306 4.35811C12.5637 4.07857 12.4306 3.70307 12.5767 3.66969C12.7228 3.63631 13.0855 3.75939 13.2029 3.72184C13.2368 3.71141 13.276 3.70515 13.3151 3.70098C13.3099 3.65926 13.3047 3.61754 13.2968 3.57164V3.57581ZM37.87 2.65792C37.9169 2.7059 37.9796 2.74762 38.0474 2.78934C38.1152 2.79977 38.17 2.82898 38.2118 2.8707C38.6997 3.0814 39.4329 3.16067 39.6416 3.03133C39.7903 2.93746 39.8529 2.75388 39.8764 2.60576C39.7225 2.38881 39.4146 2.14682 38.7988 1.98827C38.337 1.87145 37.9378 1.8631 37.6195 1.96324C37.6117 2.14056 37.6404 2.42844 37.87 2.65792ZM34.4441 5.3824C34.5746 5.43873 35.0103 5.34068 35.1773 5.397C35.3443 5.45124 35.1199 5.86638 35.2217 6.20225C35.2608 6.33159 35.3573 6.4651 35.4617 6.57984C35.6835 6.60905 35.9053 6.6153 36.0905 6.57984C36.0357 6.56941 35.9992 6.56107 35.9862 6.55272C35.7435 6.44007 35.5269 5.94774 35.5843 5.52217C35.6157 5.30313 35.7539 5.13207 35.8792 5.01733C36.0018 4.90676 36.1818 4.84835 36.3671 4.8567C36.4062 4.8567 36.4506 4.86087 36.4923 4.86296C36.3828 4.78368 36.1714 4.6752 35.7931 4.62722C35.2034 4.55212 34.5302 4.70024 34.358 5.203C34.3398 5.25515 34.3293 5.30104 34.3137 5.34902C34.358 5.35737 34.4024 5.36988 34.4389 5.38449L34.4441 5.3824ZM56.095 36.3531C56.322 36.2801 56.5621 35.9421 56.6638 35.7293C56.4316 35.6876 56.0324 35.625 55.6019 35.5645C55.6175 35.6918 55.6149 35.8253 55.5914 35.9671C55.5706 36.0902 55.5288 36.2071 55.4766 36.3155C55.7532 36.3364 55.9959 36.3489 56.0976 36.3531H56.095ZM16.2322 17.5821C15.9008 17.5508 15.559 17.5529 15.2224 17.5946C14.8728 17.6384 14.5962 17.7135 14.2962 17.7824C13.7117 17.9284 13.1664 18.0869 12.6211 18.1599C12.0757 18.2371 11.5357 18.2184 11.019 18.0807C10.5103 17.9492 9.99885 17.6968 9.48485 17.4611C9.31786 17.3839 9.15088 17.3067 8.98128 17.2295C8.94736 17.2149 8.91344 17.1982 8.87691 17.1836C8.69688 17.1044 8.51424 17.0251 8.32638 16.95C8.17505 16.8895 8.0211 16.8332 7.86455 16.7789C7.29575 16.587 6.66695 16.4493 6.02509 16.4764C5.38324 16.5015 4.7753 16.6934 4.2639 16.9688C4.19867 17.0042 4.18041 17.0752 4.22477 17.1273C4.26651 17.1774 4.35001 17.192 4.41263 17.1628C4.91359 16.9312 5.47195 16.7956 6.03031 16.8019C6.59128 16.8019 7.13921 16.9458 7.65582 17.144C7.6793 17.1523 7.70018 17.1628 7.72366 17.1732C8.21679 17.3693 8.68645 17.6134 9.16392 17.8637C9.29438 17.9326 9.42745 18.0014 9.56052 18.0702C9.68315 18.1328 9.80578 18.1954 9.93102 18.2559C10.0615 18.3206 10.2024 18.379 10.338 18.4395C10.4842 18.4916 10.6303 18.5521 10.7842 18.5939C11.0895 18.6877 11.4156 18.7399 11.7444 18.7691C12.0731 18.7941 12.4019 18.7795 12.7202 18.7482C13.3595 18.6794 13.9491 18.525 14.5127 18.404C14.7893 18.3456 15.0841 18.2809 15.3294 18.2601C15.5851 18.2371 15.846 18.2434 16.1095 18.2726C16.3704 18.3018 16.6314 18.3581 16.8871 18.4332C17.0697 18.4875 17.2602 18.5563 17.4272 18.6272L17.7142 17.9388C17.542 17.8721 17.3671 17.8136 17.1845 17.7615C16.874 17.676 16.5531 17.6134 16.2217 17.5821H16.2322ZM14.2988 25.2903C14.0561 25.1589 13.8108 25.0901 13.5708 25.0942C12.3549 25.1193 11.066 27.0197 11.1547 29.7025C11.2434 32.3853 12.6602 34.2273 13.8761 34.2002C14.2257 34.1918 14.5779 34.027 14.9067 33.735C15.0293 33.541 15.2746 33.1175 15.332 32.7462C15.4077 32.2455 15.0085 31.8742 14.8989 31.8324C14.7867 31.7907 14.9563 31.3839 15.058 31.119C15.1102 30.9834 15.1572 30.4452 15.1259 29.8277C15.0946 29.861 15.0633 29.8923 15.0267 29.9236C14.9902 30.9291 14.6171 31.7073 14.1318 31.7177C13.5969 31.7281 13.1351 30.8081 13.0959 29.6587C13.0568 28.5113 13.4586 27.5705 13.9935 27.56C14.1526 27.5559 14.304 27.6372 14.4397 27.7791L14.4788 27.6852C14.0822 27.2117 13.7169 27.3055 13.6126 27.3201C13.4847 27.3368 13.5212 26.8174 13.4012 26.5107C13.2812 26.2041 12.668 25.9412 12.6472 25.8536C12.6263 25.7722 13.3464 24.9399 14.3014 25.2903H14.2988ZM14.4188 29.2561L14.4057 29.2832C14.3875 29.3124 14.2414 29.5773 14.4814 29.7004C14.5597 29.6962 14.7658 29.4876 14.8754 29.2665L17.1349 23.8551C16.994 23.8196 16.8584 23.7716 16.7305 23.7174L14.4162 29.2561H14.4188ZM16.2948 22.8704C16.5505 22.8642 16.9392 22.8871 17.435 23.0248C17.8838 23.15 18.1447 23.2918 18.296 23.4024L22.0793 14.3465C22.0532 14.2818 21.928 14.0649 21.2887 13.8271C20.6234 13.5788 20.1824 13.7582 20.0389 13.8354L16.2739 22.8517C16.2739 22.8517 16.2896 22.8642 16.2948 22.8704ZM15.6347 3.52992C15.4181 3.45899 14.7658 3.42144 14.1161 3.40475C14.1631 3.45482 14.2074 3.51323 14.2205 3.56956C14.2518 3.70098 14.5597 3.79277 14.7841 3.78234C15.0085 3.77191 15.3972 3.653 16.1043 4.19331C16.2869 4.33308 16.5348 4.52918 16.8036 4.74405C16.9262 4.70024 17.0488 4.66269 17.1715 4.63139C16.3965 4.0285 15.7912 3.58416 15.6347 3.53201V3.52992ZM18.7004 4.99021C18.51 4.95892 18.3143 4.94431 18.1186 4.94849C16.3887 4.98604 14.7136 6.43172 14.2257 8.3155C13.9491 9.38151 14.0692 10.4413 14.5623 11.3008C15.0293 12.1143 15.7782 12.6421 16.6705 12.7902C16.861 12.8215 17.0567 12.8361 17.2523 12.832C17.255 12.832 17.2602 12.832 17.2628 12.832C15.6894 12.3355 14.6588 10.773 14.878 9.01644C15.1285 6.98246 16.9549 5.46168 18.9561 5.61813C19.5875 5.6682 20.159 5.88099 20.639 6.2106C20.185 5.57433 19.5171 5.12581 18.7004 4.99021ZM18.8048 9.48999C18.4969 10.4621 18.9979 11.403 19.9241 11.6012C20.4955 11.0254 20.9365 10.2869 21.1504 9.46496C21.2705 9.00601 21.3096 8.5554 21.2861 8.12358C21.2157 8.09854 21.1452 8.07351 21.0669 8.05891C20.1276 7.86907 19.1153 8.50951 18.8074 9.48791L18.8048 9.48999ZM22.1419 5.85804C22.1263 5.83718 22.108 5.81632 22.0897 5.79546C21.7271 5.69532 21.367 5.59936 21.0278 5.51591C21.5496 6.07291 21.8653 6.69249 21.9749 7.37048C22.2019 8.78071 22.2463 9.7737 20.9521 11.6658C20.6469 12.1123 20.2451 12.4544 19.8093 12.7193C19.8093 12.7193 19.5954 12.8779 19.3579 12.9634C19.1153 13.0781 18.8674 13.1762 18.6222 13.2555C18.8283 13.2951 19.2875 13.414 19.6189 13.5225C19.6841 13.4787 19.9346 13.3285 20.3285 13.2721C20.866 12.9279 21.4348 12.4377 21.8314 11.7576C22.8934 9.94059 23.0525 9.02061 22.969 8.04222C22.8725 6.89067 22.3559 6.13132 22.1393 5.86013L22.1419 5.85804ZM31.0053 5.57433C31.9211 5.04236 32.349 5.22386 32.6073 5.26141C32.8656 5.29896 33.2387 5.2322 33.2987 5.08617C33.3248 5.02359 33.3848 4.961 33.4474 4.91094C32.6934 4.85253 31.9341 4.81915 31.6706 4.87339C31.3418 4.94431 29.2832 6.16887 27.3185 7.40803C27.4255 7.45393 27.5742 7.50817 27.6994 7.50608C27.9186 7.50191 30.0894 6.10629 31.0053 5.57433ZM28.0047 18.0994C28.3283 19.0194 29.2284 21.3309 30.3321 22.1445C31.3836 22.9205 33.7762 24.1722 34.8747 24.7333C34.9842 23.8801 35.3391 21.8899 35.4174 21.5895C35.5139 21.214 35.7592 21.1202 36.0853 21.0263C36.4115 20.9324 39.245 21.0033 39.245 21.0033C38.6005 20.7071 37.8856 20.1543 37.5647 19.8935C37.4969 19.8956 37.429 19.8998 37.3612 19.9019C35.8896 19.9332 34.1258 19.6661 32.6177 19.3574C30.6739 18.961 29.1658 18.5521 28.0073 18.1036L28.0047 18.0994ZM36.8759 27.6873C36.9985 26.9968 37.2986 26.6526 37.2046 26.5816C37.1107 26.5107 36.9124 26.5879 36.7559 26.8549C36.5993 27.122 36.2184 27.8041 36.5132 28.9411C36.808 30.078 38.0109 30.9604 38.457 31.1419C38.9032 31.3234 39.5138 31.4861 39.3937 31.2108C39.3937 31.2108 38.564 31.0522 37.8778 30.2762C37.1916 29.5001 36.7506 28.382 36.8759 27.6894V27.6873ZM37.0637 21.8378C36.9698 21.7815 36.8028 21.7251 36.7533 21.844C36.7011 21.963 36.4115 24.1951 36.448 24.2389C36.4871 24.2827 36.6724 24.3808 36.7011 24.1597C36.7011 24.1597 37.1577 21.8941 37.0637 21.8378ZM36.0931 30.078C35.7461 29.5732 35.7018 28.7971 35.6261 28.7262C35.613 28.7137 35.5974 28.7053 35.5791 28.697C35.54 28.722 35.4982 28.7491 35.4435 28.7846C35.4043 28.8096 35.36 28.8388 35.313 28.868C35.313 29.1142 35.4121 29.7484 35.6209 30.1614C35.9731 30.8561 37.0898 31.361 37.0403 30.9521C37.0403 30.9521 36.4428 30.5849 36.0957 30.078H36.0931ZM37.7552 24.9586C37.8308 25.015 38.0161 25.0713 38.0317 24.9816C38.0317 24.9816 38.7571 22.0068 38.6266 21.9504C38.4962 21.8941 38.1831 21.8274 38.1492 21.9317C38.1152 22.0339 37.6795 24.9002 37.7552 24.9586ZM39.3442 15.569C38.3188 13.875 34.812 10.9586 32.5212 9.89679C30.713 9.05816 28.6544 8.85372 28.0386 8.80991C28.19 9.17081 28.263 9.53797 28.2735 9.91139C28.2891 10.4016 28.2682 10.8627 28.19 11.2903C28.2004 11.2715 28.2082 11.259 28.2082 11.259C28.3335 11.4885 28.4222 11.7305 28.4848 11.9787C29.3432 12.0705 33.0508 12.5003 33.6223 13.1365C33.6223 13.1365 30.58 12.5837 28.584 12.5483C28.6205 12.9196 28.6126 13.2909 28.584 13.6435C29.4685 13.7144 33.377 14.0983 36.0123 15.4897C36.0123 15.4897 36.5341 15.7421 36.2758 15.7192C36.2758 15.7192 31.4175 14.6219 28.4613 14.6281C28.4013 15.0349 28.3517 15.3562 28.3909 15.5356C28.5213 16.1197 29.1006 15.9299 29.1006 15.9299C31.6289 15.9048 35.0599 16.5933 36.5054 17.0898C37.9509 17.5863 38.3918 17.5758 38.7284 16.6913C38.898 16.2428 38.8249 15.7776 38.7101 15.4271C38.9632 15.788 39.2085 16.2073 39.3207 16.6058C39.5633 17.4569 39.7094 18.5751 38.2013 19.3219C38.0552 19.3657 37.9013 19.4033 37.7473 19.4325C38.5692 19.3782 39.172 19.2072 39.5164 18.9172C40.2548 18.2955 40.5078 17.4882 39.3468 15.5711L39.3442 15.569ZM43.3049 27.9272C43.2579 27.8834 43.2109 27.8396 43.1614 27.7979C43.1092 27.7541 43.057 27.7123 42.9996 27.6706C42.9631 27.6435 42.9265 27.6164 42.8874 27.5913C42.8196 27.5434 42.7517 27.4975 42.6787 27.4516C42.6343 27.4244 42.5874 27.3994 42.543 27.3723C42.5039 27.3619 42.4647 27.3514 42.4334 27.3431C42.1986 27.2763 42.0081 27.1741 41.862 27.0448C41.7837 27.0135 41.7028 26.9864 41.622 26.9572C41.3297 26.8821 40.9592 26.7861 40.5418 26.6797C40.5209 26.6755 40.5 26.6693 40.4765 26.6672C39.0676 26.4335 38.0265 26.5879 37.7995 27.1866C37.5725 27.7853 37.6639 28.8826 38.5458 29.763C39.2502 30.466 40.2626 31.0084 41.2671 31.1086C41.3193 31.1127 41.3715 31.1169 41.4237 31.119C41.4445 31.119 41.4628 31.1211 41.4837 31.1211C41.528 31.1211 41.5724 31.1232 41.6141 31.1211C41.6481 31.1211 41.6846 31.1211 41.7185 31.119C41.7498 31.119 41.7837 31.1169 41.815 31.1148C41.8855 31.1106 41.9533 31.1023 42.0238 31.0919C42.1621 31.071 42.2899 31.046 42.4125 31.0188C42.4778 31.0042 42.5378 30.9876 42.6004 30.9688C42.6474 30.9563 42.6943 30.9437 42.7387 30.9291C42.8143 30.9041 42.8874 30.877 42.9579 30.8499C42.9761 30.8436 42.9918 30.8353 43.0074 30.829C43.0857 30.7956 43.1588 30.7602 43.2266 30.7226C43.6362 30.4931 43.8632 30.1823 43.9624 29.7964C43.9624 29.7964 44.1868 29.2227 43.7902 28.5238C43.7693 28.4863 43.7458 28.4487 43.7223 28.4112C43.6962 28.3695 43.6675 28.3277 43.6362 28.286C43.5684 28.1963 43.4927 28.1108 43.4118 28.0273C43.3779 27.9919 43.3388 27.9564 43.3023 27.923L43.3049 27.9272ZM44.9199 21.4414C44.7608 21.5457 44.6068 21.7147 44.4999 21.988C44.1711 22.8308 43.5058 26.3188 43.4458 26.6484C43.4092 26.8466 43.4901 27.0072 43.6336 27.1449C44.3381 27.2868 45.1104 27.4182 45.2591 27.4161C45.4992 27.4119 45.8071 27.341 45.9349 27.0364C46.4046 25.2882 47.1508 22.4449 47.1638 22.2196C47.1586 22.0798 46.9864 21.8148 46.5402 21.7001C46.2376 21.6229 45.5514 21.5186 44.9199 21.4435V21.4414ZM50.801 33.9311C50.7984 33.9832 50.7906 34.0354 50.7854 34.0875C51.0828 34.1063 51.3985 34.1293 51.7168 34.1522C51.756 33.8226 51.7899 33.4826 51.816 33.1217C52.0195 30.3346 50.5218 26.9968 48.0405 26.5065C47.2004 26.9884 46.4646 27.8709 45.9245 29.0162C46.6446 29.2978 47.9127 30.1844 48.3588 30.5077C48.638 30.2073 48.9485 30.0384 49.2668 30.053C50.2505 30.0947 50.9393 31.8324 50.801 33.9332V33.9311ZM52.3822 33.1488C52.3561 33.4993 52.3248 33.8497 52.2856 34.1981C52.677 34.2294 53.0606 34.2628 53.4128 34.292C53.4415 34.0062 53.465 33.7183 53.4728 33.4262C53.4911 32.6377 53.4284 31.8762 53.3006 31.1586C53.0188 30.4744 52.3013 28.8743 52.0378 28.7909C51.8395 28.7304 51.6151 28.7554 51.4663 28.7846C52.1813 30.1635 52.4813 31.8116 52.3848 33.1467L52.3822 33.1488ZM51.1324 17.363C51.4924 17.4215 51.9125 17.676 52.0351 18.0911C52.1134 18.354 52.0378 18.6544 51.9725 18.84C52.1108 18.8296 52.2256 18.8171 52.283 18.7983C52.4187 18.7503 52.4344 18.6544 52.3796 18.1453L52.3717 18.0828C52.33 17.678 52.116 17.3401 51.7534 17.0918C51.3411 16.9145 47.3386 16.7894 45.9975 16.8186C45.8932 16.8207 45.8071 16.8248 45.7366 16.829C45.6323 16.8353 45.5409 16.8394 45.4548 16.8415C46.0654 16.9625 47.0073 17.1503 47.3856 17.2274C47.9675 17.3464 48.7241 17.7928 48.925 18.0744C49.1259 18.356 49.1781 19.0799 49.4495 18.9652C49.7208 18.8505 49.8878 18.0994 49.7991 17.8804C49.7104 17.6634 49.4286 17.4715 49.3399 17.3192C49.2512 17.1669 50.7697 17.3109 51.1272 17.3693L51.1324 17.363ZM56.8308 26.1039C57.0317 26.0998 57.2665 25.9767 57.3396 25.9913C57.4126 26.0038 57.4387 26.7944 57.4544 27.2638C57.47 27.7332 57.5092 29.4605 57.2196 29.5836C57.2196 29.5836 57.217 29.5836 57.2143 29.5836C57.5144 29.5168 57.6057 29.4063 57.6057 29.4042C58.0258 28.7637 57.7571 26.0121 57.6344 25.7076C57.5353 25.5386 56.3377 24.1951 56.0637 23.9656C55.915 23.9469 55.4845 23.9344 55.0696 23.9281C55.701 25.6617 56.2724 28.117 56.5073 29.1977C56.5568 28.868 56.5934 28.4633 56.549 28.1755C56.4577 27.6059 56.0376 26.0038 56.0533 25.96C56.0689 25.9162 56.6273 26.1081 56.8282 26.1039H56.8308ZM55.1688 28.2923C55.2914 28.7783 55.3905 29.2665 55.5549 29.7588C55.7376 30.2553 56.082 30.7101 56.596 31.0335C56.6325 31.0564 56.6847 31.0522 56.7134 31.023C56.7421 30.9938 56.7369 30.9542 56.7029 30.9312L56.6951 30.925C56.2516 30.6141 55.9489 30.1656 55.8158 29.7046C55.688 29.231 55.6045 28.7345 55.5079 28.2464C55.3149 27.2638 55.1087 26.2771 54.7487 25.3091C54.4043 24.3328 53.7468 23.4107 52.8883 22.6535C52.2543 22.0944 51.5055 21.6167 50.6706 21.2558C50.6471 21.408 50.5871 21.5687 50.4592 21.7043C51.2002 22.036 51.8812 22.4657 52.4631 22.9664C52.8727 23.3169 53.238 23.7007 53.5459 24.1138C53.8537 24.5268 54.0912 24.967 54.2869 25.428C54.6782 26.3522 54.9313 27.3243 55.1688 28.2944V28.2923ZM54.0964 36.8579C54.3834 36.7682 54.9418 36.4219 55.0279 35.9066C55.1244 35.333 54.7617 34.9345 54.3469 34.8323C52.5335 34.6633 50.5714 34.5131 49.6373 34.4797C49.773 34.5569 49.9035 34.6633 50.013 34.8135C50.4018 35.3538 50.1696 35.8211 50.227 35.8524C50.2818 35.8837 54.5452 35.9797 54.566 36.1215C54.5791 36.2175 54.4173 36.6034 54.099 36.8579H54.0964ZM49.1912 40.3939C49.8278 40.4023 50.4488 40.1582 51.0202 39.6888C51.0698 39.597 51.0828 39.5115 51.0202 39.451C50.8219 39.257 50.4149 39.3988 50.4149 39.3988C50.4149 39.3988 51.1898 38.7229 51.3411 38.3245C51.422 38.1075 51.4089 37.9156 51.3776 37.7821C50.754 39.0546 49.7547 39.9892 48.1214 40.2333C48.4841 40.3355 48.8807 40.3918 49.1912 40.396V40.3939ZM47.2578 39.839C49.0816 39.8307 50.2974 39.0004 51.0254 37.1771C50.5923 37.1458 50.167 37.1124 49.7887 37.077C49.4808 37.4587 49.1311 37.6757 48.7711 37.6611C48.304 37.6423 47.9048 37.2376 47.6283 36.5951C47.0099 36.7995 45.9819 36.7056 45.3818 36.6243C45.7784 38.0074 46.4359 39.1381 47.2604 39.839H47.2578ZM33.6588 34.1042C34.6111 34.4818 37.4055 34.7864 39.9495 35.0451L40.4217 35.0931C42.7491 35.3288 48.1736 35.8774 48.6693 35.867C48.6745 35.867 48.6772 35.867 48.6824 35.867C48.925 35.8482 49.0685 35.6021 49.0607 35.383C49.0555 35.2433 48.9798 35.1473 48.9276 35.0972C47.6857 35.0054 36.8968 34.1939 35.1277 33.7663C33.2257 33.3032 32.8004 31.6906 33.21 30.3888C33.5101 29.4313 34.5772 28.7554 35.0912 28.43C35.1747 28.3778 35.2686 28.3173 35.2869 28.3006C35.6496 27.9418 35.4148 27.7082 35.2034 27.5621C34.846 27.316 34.2693 27.5434 33.3352 28.3006C32.7534 28.7721 32.1011 29.836 32.015 31.411C31.9446 32.6627 32.5603 33.6703 33.6588 34.1042ZM35.0286 30.5077C35.0286 30.5077 34.7181 30.2282 34.6216 29.8464C34.585 29.6983 34.5616 29.5523 34.5433 29.4313C34.4415 29.521 34.3398 29.617 34.2458 29.7171C34.2798 29.8402 34.3215 29.9654 34.3659 30.0592C34.4702 30.2762 34.9425 30.8603 35.026 30.5057L35.0286 30.5077ZM30.199 34.0291C30.6139 34.3692 31.4932 34.5632 32.1455 34.6654C32.2342 34.68 32.2759 34.582 32.195 34.5507C31.5375 34.3024 30.64 33.7892 30.3243 32.7983C29.912 31.5091 30.5304 29.8569 30.8096 29.2143C30.8461 29.1309 30.7209 29.0641 30.6374 29.1226C30.2382 29.3979 29.552 29.9904 29.2989 30.9542C28.9336 32.3456 29.4919 33.4554 30.199 34.0333V34.0291ZM26.7628 23.3127C26.9558 23.3315 28.2578 22.8183 28.2787 22.643C28.2787 22.643 26.3557 18.5521 26.1052 18.4916C25.8548 18.4311 24.9885 18.7795 24.9624 18.8463C24.9363 18.913 26.5671 23.2939 26.7601 23.3127H26.7628ZM24.0675 9.28346C24.3936 9.18959 27.3289 9.83003 27.4255 10.2222C27.5194 10.6061 27.4672 12.2458 26.421 13.1219C26.6688 12.9801 26.8097 12.8653 26.8489 12.832C27.4881 12.1665 27.7516 11.2674 27.7073 9.92182C27.6942 9.50877 27.5977 9.127 27.4177 8.77236C27.1489 8.59921 26.4888 8.19659 25.8652 7.99006C25.059 7.72095 23.984 7.65628 23.8927 7.39552C23.8013 7.13475 23.6448 6.58818 23.3317 6.24189C23.2952 6.20225 23.2613 6.16679 23.2299 6.13341C23.123 6.10003 23.016 6.06457 22.909 6.03119C23.1751 6.47345 23.4648 7.13475 23.5404 8.00884C23.6291 9.06025 23.4622 10.0428 22.3507 11.9475C22.1628 12.2708 21.941 12.5524 21.7036 12.8007C22.1837 12.5024 22.7707 11.9975 23.1438 11.1693C23.8587 9.57135 23.7439 9.37734 24.0701 9.28138L24.0675 9.28346ZM23.6892 31.8554C23.6474 32.2225 23.5978 32.5834 23.53 32.9527C23.4622 33.3511 23.4961 33.7558 23.5926 34.1397C23.6839 34.5235 23.864 34.8844 24.0023 35.2287C24.1249 35.5416 24.1197 35.9108 24.0049 36.2383V36.2467C23.9814 36.3072 24.0231 36.3698 24.0988 36.3865C24.1666 36.4011 24.2371 36.3739 24.2658 36.3239C24.3728 36.134 24.4302 35.9463 24.4615 35.7439C24.4928 35.5457 24.4823 35.3371 24.4249 35.1348C24.3127 34.7614 24.1927 34.413 24.1275 34.0625C24.0623 33.712 24.0597 33.3637 24.1379 33.0257C24.2214 32.6606 24.2867 32.281 24.3441 31.9075C24.4536 31.1565 24.498 30.4034 24.5163 29.6462C24.511 28.891 24.4823 28.1337 24.378 27.3806C24.1823 25.8745 23.7753 24.3766 23.1047 22.9455C22.4994 21.648 21.6514 20.4192 20.6129 19.299L20.1929 20.3066C20.3416 20.4755 20.4903 20.6445 20.6312 20.8177C21.2391 21.5812 21.7584 22.3906 22.1889 23.2313C22.8777 24.5748 23.3239 26.0038 23.5665 27.4557C23.697 28.1817 23.7492 28.916 23.7831 29.6483C23.7935 30.3826 23.7753 31.119 23.697 31.8512L23.6892 31.8554ZM11.3687 39.5303C12.2662 39.7097 13.289 39.7994 14.0665 39.7827C18.5752 39.6867 22.0897 35.0618 21.9019 29.473C21.8732 28.6073 21.7532 27.7603 21.5549 26.9467C21.8993 29.3166 21.9071 32.4979 20.4721 35.1577C20.4721 35.1577 19.5406 36.9059 19.2771 36.7077C19.2771 36.7077 20.7434 34.5674 20.4955 33.6641C20.2451 32.7608 19.4806 32.8943 19.4806 32.8943C19.4806 32.8943 19.6319 31.9764 19.6658 30.6454C19.0683 35.5666 15.632 39.3675 11.3634 39.4593L11.1991 39.4635C11.2565 39.4864 11.3139 39.5073 11.3687 39.5303ZM10.312 39.0317C10.6042 39.0254 10.9303 39.0171 11.1234 39.0129L11.3478 39.0066C15.8564 38.9107 19.371 34.2857 19.1831 28.697C19.1335 27.243 18.8126 25.8077 18.283 24.4934C18.2099 24.3307 18.1186 24.1451 18.0142 23.9427C17.9986 23.9427 17.9855 23.9448 17.9673 23.9448C17.8864 23.9448 17.7977 23.9448 17.7011 23.9385L16.3704 27.122C16.6548 27.8458 16.8323 28.6845 16.861 29.5815C16.9523 32.3477 15.6242 34.6174 13.8917 34.655C12.1592 34.6925 10.6798 32.4812 10.5885 29.715C10.4972 26.9488 11.8253 24.6791 13.5578 24.6415C14.2257 24.6269 14.8571 24.9503 15.3868 25.5094L16.2452 23.4566C15.9347 23.2543 15.7442 23.0603 15.7286 23.0457C15.6712 22.9852 15.6529 22.9059 15.6842 22.835L16.2452 21.4957C15.966 21.2224 15.6608 20.9658 15.3268 20.7467C13.8056 19.7412 11.867 19.7412 10.8234 19.8351C7.45492 21.2432 5.11449 25.209 5.26843 29.8318C5.40411 33.9165 7.4523 37.4066 10.312 39.0338V39.0317ZM21.6462 14.4049C21.761 14.5196 18.0925 22.6702 18.0925 22.6702C17.7898 22.9414 17.7924 22.4282 17.8942 22.2049C17.996 21.9838 20.8974 14.4925 21.0565 14.3131C21.2157 14.1337 21.5314 14.2881 21.6462 14.4028V14.4049ZM44.3042 25.6554C44.2259 26.0372 44.2624 26.5942 44.526 26.7777C44.7895 26.9634 45.3452 27.1699 45.1261 27.1887C45.1261 27.1887 44.0589 27.0802 43.8685 26.8779C43.678 26.6776 44.8234 22.0381 44.9513 21.9609C45.0765 21.8858 45.0608 21.988 45.0608 21.988C45.0452 22.0318 44.3825 25.2695 44.3042 25.6512V25.6554Z"/>
</mask>
<path d="M5.12232 18.6648C4.90315 18.6836 4.68919 18.6752 4.48829 18.6231C3.74989 18.4332 2.84191 17.6029 3.11326 16.9521C3.38461 16.3012 5.75374 14.8451 9.06999 14.2464C10.9434 13.9084 13.4012 13.898 15.8538 14.5113C15.9504 14.1003 16.4018 13.51 16.6 13.2659C16.4905 13.2367 16.3783 13.2054 16.2687 13.1741C16.2687 13.1741 16.2791 13.1741 16.2843 13.1741C14.2361 12.6734 13.0725 10.5205 13.6699 8.22371C14.0378 6.80514 14.9954 5.65568 16.1721 5.02359C15.7208 4.68146 15.3685 4.4353 15.2355 4.39358C15.0685 4.34142 14.3849 4.31013 13.7691 4.2997C13.7091 4.52083 13.5891 4.68981 13.4143 4.79203C13.1559 4.94431 12.4019 5.11538 11.7757 5.03819C11.5461 5.00899 11.3321 4.9464 11.1652 4.83584C11.0843 4.7816 11.0216 4.71275 10.9721 4.63557C9.63879 4.66686 7.02962 4.66269 6.92004 4.65851C6.77914 4.65434 6.55736 4.22669 6.52866 3.9534C6.50257 3.68012 6.54954 3.34008 6.70609 3.26915C6.70609 3.26915 9.37265 3.08557 10.9695 3.08557C10.9799 3.0522 10.9903 3.0209 10.9956 3.00213L11.0269 2.9458C11.0582 2.90825 11.3478 2.58073 12.1384 2.56196C12.3732 2.5557 12.5898 2.58282 12.7881 2.63288C12.5037 2.25112 12.2245 1.88814 12.1514 1.81929C12.1045 1.79426 11.9453 1.76088 11.7261 1.72333C11.4939 2.05294 11.019 2.345 10.0745 2.38463C9.86317 2.39298 9.67532 2.38463 9.50833 2.36586C8.59773 2.25112 8.3316 1.73376 8.27942 1.28107C8.27942 1.2769 8.27942 1.27064 8.27942 1.26647C8.27159 0.924344 8.59512 0.22549 9.86839 0.0377386C10.7451 -0.0916014 11.2486 0.135787 11.5148 0.352744C11.8279 0.605166 11.9818 0.984841 11.9062 1.32279C11.9062 1.33322 11.9009 1.34574 11.8983 1.35617C12.2323 1.42084 12.441 1.48968 12.5219 1.56479C12.6915 1.72333 13.4116 2.7059 13.6308 3.00839C14.3066 3.01465 15.4285 3.04385 15.8173 3.17111C16.0808 3.25664 16.9053 3.87204 17.735 4.525C17.8577 4.5104 17.9803 4.50206 18.1055 4.49997C18.343 4.4958 18.5804 4.5104 18.8178 4.55004C18.8178 4.55004 22.8099 5.31356 25.1529 6.34619C25.7817 6.62365 26.2905 6.91571 26.7054 7.22028C27.749 6.55898 30.9322 4.56047 31.5271 4.4353C31.9994 4.33517 33.3013 4.4353 34.0841 4.50831C34.392 4.18914 35.4043 3.15024 35.6287 2.98753C35.7331 2.91243 35.9888 2.85819 36.388 2.82272C36.388 2.8102 36.3854 2.79769 36.3828 2.78309C36.3567 2.38881 36.6045 1.97158 37.0116 1.71916C37.3586 1.50429 37.9822 1.30193 38.9737 1.55435C40.4113 1.92151 40.6592 2.75805 40.5887 3.15024C40.5887 3.1565 40.5887 3.16067 40.5861 3.16693C40.4452 3.67803 40.0434 4.2392 38.9684 4.26215C38.7727 4.26632 38.5536 4.25172 38.3083 4.21626C37.2229 4.0598 36.7272 3.6676 36.5184 3.26498C36.2601 3.27958 36.0697 3.30044 36.0096 3.32339C35.9105 3.39432 35.5243 3.77608 35.1251 4.18079C35.3626 4.14533 35.6209 4.14116 35.8896 4.17453C36.8002 4.28927 37.0768 4.70024 37.1055 4.74613L37.1316 4.81497C37.1368 4.84001 37.142 4.87547 37.1472 4.91511C38.9945 5.10495 42.0446 5.63065 42.0446 5.63065C42.2116 5.7287 42.209 6.12506 42.1255 6.43381C42.0446 6.74256 41.7107 7.20359 41.5463 7.19316C41.4211 7.18482 38.4022 6.88024 36.8654 6.68623C36.795 6.76968 36.7089 6.84061 36.6045 6.89276C36.3932 6.99915 36.1349 7.04713 35.8635 7.05131C35.1251 7.06799 34.285 6.78219 34.0136 6.57567C33.831 6.4359 33.724 6.22937 33.6927 5.9686C32.9804 5.91019 32.182 5.86221 31.9811 5.90393C31.5793 5.98321 29.3902 7.33293 27.8351 8.34679C27.8508 8.34679 27.8638 8.34053 27.8821 8.34053C27.9891 8.34471 30.546 8.44693 32.8134 9.49834C35.1017 10.5602 38.5666 13.4203 39.7486 15.1935C40.0565 15.2665 43.3127 16.0363 44.8078 16.3367C44.8156 16.3367 44.8365 16.345 44.8469 16.3471C44.8469 16.3471 45.0635 16.4076 45.7105 16.368C46.1019 16.345 51.589 16.368 52.1186 16.7289C52.6092 17.0647 52.8988 17.5174 52.9536 18.0389L52.9588 18.1015C53.0136 18.6168 53.0553 19.0236 52.5205 19.2093C52.3195 19.2781 52.0038 19.2927 51.6046 19.3094C51.208 19.3261 50.7253 19.349 50.4357 19.4387C51.6907 19.8664 53.6685 21.1118 54.5399 22.6681C54.6652 22.8892 54.7878 23.1625 54.9131 23.4671C56.1342 23.4712 56.2855 23.5276 56.3377 23.5463C56.6299 23.6548 58.1093 25.4092 58.1693 25.5115C58.3154 25.7618 58.6703 28.7825 58.1354 29.6003C58.1067 29.6503 57.8353 30.0613 56.8125 30.0822C56.7917 30.0822 56.7682 30.0822 56.7473 30.0822C56.9117 30.5495 57.11 30.7706 57.1569 30.9417C57.2196 31.1607 57.0865 31.338 56.3559 31.6405C55.8289 31.8575 55.354 31.8116 55.127 31.7678C55.1922 32.3456 55.2209 32.9381 55.2079 33.5451C55.1975 33.9311 55.1661 34.3108 55.1244 34.6863C55.2601 34.7947 55.3749 34.9262 55.4636 35.0785C57.1152 35.3038 57.17 35.358 57.243 35.4394C57.3265 35.5332 57.3213 35.6501 57.2222 35.867C57.1622 36.0005 56.8256 36.6723 56.2229 36.7974C56.202 36.8016 56.1811 36.8037 56.1602 36.8037C56.155 36.8037 56.1472 36.8037 56.142 36.8037C56.1159 36.8037 55.6619 36.787 55.1844 36.7411C55.007 36.9205 54.7956 37.0624 54.5921 37.1625C53.4467 40.6296 50.848 43.0433 47.8866 42.9953C44.8495 42.9473 42.3264 40.3272 41.4054 36.6889C40.5966 36.7536 38.457 36.8871 37.7969 36.57C36.9776 36.1778 36.8498 35.6813 36.8498 35.6813C36.8498 35.6813 29.2936 35.4623 28.37 35.2766C27.4464 35.091 26.8175 34.8698 26.4131 33.7663C26.1548 33.057 25.8913 32.1558 25.7086 31.1357C25.6956 31.3401 25.6747 31.5216 25.646 31.6718C25.3668 33.2009 25.4086 34.4025 25.3564 35.0472C25.3042 35.6939 24.7224 36.9351 23.8953 37.3941C23.1308 37.8155 22.1106 37.9928 21.8079 37.8593C19.6893 40.9175 16.3652 42.916 12.5663 42.9974C5.87637 43.1413 0.253616 37.2918 0.00835419 29.9341C-0.148197 25.259 1.90522 21.1035 5.13797 18.6564L5.12232 18.6648ZM9.9545 0.423673C9.40657 0.505032 9.11435 0.686525 8.95258 0.859674C8.95258 0.989014 8.98128 1.15173 9.09608 1.24561C9.25524 1.37495 9.89188 1.37078 10.3354 1.23309C10.3746 1.2018 10.4268 1.18302 10.4842 1.17885C10.5494 1.14965 10.6068 1.11835 10.6538 1.0808C10.8807 0.903482 10.946 0.659405 10.9616 0.505032C10.7059 0.392381 10.3615 0.363175 9.9545 0.423673ZM13.2968 3.57581C13.2212 3.12938 12.668 2.94163 12.154 2.95415C11.8253 2.96249 11.6322 3.03759 11.5278 3.096C11.5644 3.096 11.6009 3.10018 11.6374 3.10226C11.7966 3.11061 11.9401 3.17736 12.0314 3.28376C12.1253 3.39432 12.2193 3.55287 12.214 3.7427C12.2062 4.11404 11.9557 4.51874 11.7339 4.59385C11.7209 4.59802 11.687 4.60219 11.64 4.60636C11.7914 4.65434 11.9818 4.66895 12.1749 4.66269C12.2793 4.57298 12.3784 4.46659 12.4306 4.35811C12.5637 4.07857 12.4306 3.70307 12.5767 3.66969C12.7228 3.63631 13.0855 3.75939 13.2029 3.72184C13.2368 3.71141 13.276 3.70515 13.3151 3.70098C13.3099 3.65926 13.3047 3.61754 13.2968 3.57164V3.57581ZM37.87 2.65792C37.9169 2.7059 37.9796 2.74762 38.0474 2.78934C38.1152 2.79977 38.17 2.82898 38.2118 2.8707C38.6997 3.0814 39.4329 3.16067 39.6416 3.03133C39.7903 2.93746 39.8529 2.75388 39.8764 2.60576C39.7225 2.38881 39.4146 2.14682 38.7988 1.98827C38.337 1.87145 37.9378 1.8631 37.6195 1.96324C37.6117 2.14056 37.6404 2.42844 37.87 2.65792ZM34.4441 5.3824C34.5746 5.43873 35.0103 5.34068 35.1773 5.397C35.3443 5.45124 35.1199 5.86638 35.2217 6.20225C35.2608 6.33159 35.3573 6.4651 35.4617 6.57984C35.6835 6.60905 35.9053 6.6153 36.0905 6.57984C36.0357 6.56941 35.9992 6.56107 35.9862 6.55272C35.7435 6.44007 35.5269 5.94774 35.5843 5.52217C35.6157 5.30313 35.7539 5.13207 35.8792 5.01733C36.0018 4.90676 36.1818 4.84835 36.3671 4.8567C36.4062 4.8567 36.4506 4.86087 36.4923 4.86296C36.3828 4.78368 36.1714 4.6752 35.7931 4.62722C35.2034 4.55212 34.5302 4.70024 34.358 5.203C34.3398 5.25515 34.3293 5.30104 34.3137 5.34902C34.358 5.35737 34.4024 5.36988 34.4389 5.38449L34.4441 5.3824ZM56.095 36.3531C56.322 36.2801 56.5621 35.9421 56.6638 35.7293C56.4316 35.6876 56.0324 35.625 55.6019 35.5645C55.6175 35.6918 55.6149 35.8253 55.5914 35.9671C55.5706 36.0902 55.5288 36.2071 55.4766 36.3155C55.7532 36.3364 55.9959 36.3489 56.0976 36.3531H56.095ZM16.2322 17.5821C15.9008 17.5508 15.559 17.5529 15.2224 17.5946C14.8728 17.6384 14.5962 17.7135 14.2962 17.7824C13.7117 17.9284 13.1664 18.0869 12.6211 18.1599C12.0757 18.2371 11.5357 18.2184 11.019 18.0807C10.5103 17.9492 9.99885 17.6968 9.48485 17.4611C9.31786 17.3839 9.15088 17.3067 8.98128 17.2295C8.94736 17.2149 8.91344 17.1982 8.87691 17.1836C8.69688 17.1044 8.51424 17.0251 8.32638 16.95C8.17505 16.8895 8.0211 16.8332 7.86455 16.7789C7.29575 16.587 6.66695 16.4493 6.02509 16.4764C5.38324 16.5015 4.7753 16.6934 4.2639 16.9688C4.19867 17.0042 4.18041 17.0752 4.22477 17.1273C4.26651 17.1774 4.35001 17.192 4.41263 17.1628C4.91359 16.9312 5.47195 16.7956 6.03031 16.8019C6.59128 16.8019 7.13921 16.9458 7.65582 17.144C7.6793 17.1523 7.70018 17.1628 7.72366 17.1732C8.21679 17.3693 8.68645 17.6134 9.16392 17.8637C9.29438 17.9326 9.42745 18.0014 9.56052 18.0702C9.68315 18.1328 9.80578 18.1954 9.93102 18.2559C10.0615 18.3206 10.2024 18.379 10.338 18.4395C10.4842 18.4916 10.6303 18.5521 10.7842 18.5939C11.0895 18.6877 11.4156 18.7399 11.7444 18.7691C12.0731 18.7941 12.4019 18.7795 12.7202 18.7482C13.3595 18.6794 13.9491 18.525 14.5127 18.404C14.7893 18.3456 15.0841 18.2809 15.3294 18.2601C15.5851 18.2371 15.846 18.2434 16.1095 18.2726C16.3704 18.3018 16.6314 18.3581 16.8871 18.4332C17.0697 18.4875 17.2602 18.5563 17.4272 18.6272L17.7142 17.9388C17.542 17.8721 17.3671 17.8136 17.1845 17.7615C16.874 17.676 16.5531 17.6134 16.2217 17.5821H16.2322ZM14.2988 25.2903C14.0561 25.1589 13.8108 25.0901 13.5708 25.0942C12.3549 25.1193 11.066 27.0197 11.1547 29.7025C11.2434 32.3853 12.6602 34.2273 13.8761 34.2002C14.2257 34.1918 14.5779 34.027 14.9067 33.735C15.0293 33.541 15.2746 33.1175 15.332 32.7462C15.4077 32.2455 15.0085 31.8742 14.8989 31.8324C14.7867 31.7907 14.9563 31.3839 15.058 31.119C15.1102 30.9834 15.1572 30.4452 15.1259 29.8277C15.0946 29.861 15.0633 29.8923 15.0267 29.9236C14.9902 30.9291 14.6171 31.7073 14.1318 31.7177C13.5969 31.7281 13.1351 30.8081 13.0959 29.6587C13.0568 28.5113 13.4586 27.5705 13.9935 27.56C14.1526 27.5559 14.304 27.6372 14.4397 27.7791L14.4788 27.6852C14.0822 27.2117 13.7169 27.3055 13.6126 27.3201C13.4847 27.3368 13.5212 26.8174 13.4012 26.5107C13.2812 26.2041 12.668 25.9412 12.6472 25.8536C12.6263 25.7722 13.3464 24.9399 14.3014 25.2903H14.2988ZM14.4188 29.2561L14.4057 29.2832C14.3875 29.3124 14.2414 29.5773 14.4814 29.7004C14.5597 29.6962 14.7658 29.4876 14.8754 29.2665L17.1349 23.8551C16.994 23.8196 16.8584 23.7716 16.7305 23.7174L14.4162 29.2561H14.4188ZM16.2948 22.8704C16.5505 22.8642 16.9392 22.8871 17.435 23.0248C17.8838 23.15 18.1447 23.2918 18.296 23.4024L22.0793 14.3465C22.0532 14.2818 21.928 14.0649 21.2887 13.8271C20.6234 13.5788 20.1824 13.7582 20.0389 13.8354L16.2739 22.8517C16.2739 22.8517 16.2896 22.8642 16.2948 22.8704ZM15.6347 3.52992C15.4181 3.45899 14.7658 3.42144 14.1161 3.40475C14.1631 3.45482 14.2074 3.51323 14.2205 3.56956C14.2518 3.70098 14.5597 3.79277 14.7841 3.78234C15.0085 3.77191 15.3972 3.653 16.1043 4.19331C16.2869 4.33308 16.5348 4.52918 16.8036 4.74405C16.9262 4.70024 17.0488 4.66269 17.1715 4.63139C16.3965 4.0285 15.7912 3.58416 15.6347 3.53201V3.52992ZM18.7004 4.99021C18.51 4.95892 18.3143 4.94431 18.1186 4.94849C16.3887 4.98604 14.7136 6.43172 14.2257 8.3155C13.9491 9.38151 14.0692 10.4413 14.5623 11.3008C15.0293 12.1143 15.7782 12.6421 16.6705 12.7902C16.861 12.8215 17.0567 12.8361 17.2523 12.832C17.255 12.832 17.2602 12.832 17.2628 12.832C15.6894 12.3355 14.6588 10.773 14.878 9.01644C15.1285 6.98246 16.9549 5.46168 18.9561 5.61813C19.5875 5.6682 20.159 5.88099 20.639 6.2106C20.185 5.57433 19.5171 5.12581 18.7004 4.99021ZM18.8048 9.48999C18.4969 10.4621 18.9979 11.403 19.9241 11.6012C20.4955 11.0254 20.9365 10.2869 21.1504 9.46496C21.2705 9.00601 21.3096 8.5554 21.2861 8.12358C21.2157 8.09854 21.1452 8.07351 21.0669 8.05891C20.1276 7.86907 19.1153 8.50951 18.8074 9.48791L18.8048 9.48999ZM22.1419 5.85804C22.1263 5.83718 22.108 5.81632 22.0897 5.79546C21.7271 5.69532 21.367 5.59936 21.0278 5.51591C21.5496 6.07291 21.8653 6.69249 21.9749 7.37048C22.2019 8.78071 22.2463 9.7737 20.9521 11.6658C20.6469 12.1123 20.2451 12.4544 19.8093 12.7193C19.8093 12.7193 19.5954 12.8779 19.3579 12.9634C19.1153 13.0781 18.8674 13.1762 18.6222 13.2555C18.8283 13.2951 19.2875 13.414 19.6189 13.5225C19.6841 13.4787 19.9346 13.3285 20.3285 13.2721C20.866 12.9279 21.4348 12.4377 21.8314 11.7576C22.8934 9.94059 23.0525 9.02061 22.969 8.04222C22.8725 6.89067 22.3559 6.13132 22.1393 5.86013L22.1419 5.85804ZM31.0053 5.57433C31.9211 5.04236 32.349 5.22386 32.6073 5.26141C32.8656 5.29896 33.2387 5.2322 33.2987 5.08617C33.3248 5.02359 33.3848 4.961 33.4474 4.91094C32.6934 4.85253 31.9341 4.81915 31.6706 4.87339C31.3418 4.94431 29.2832 6.16887 27.3185 7.40803C27.4255 7.45393 27.5742 7.50817 27.6994 7.50608C27.9186 7.50191 30.0894 6.10629 31.0053 5.57433ZM28.0047 18.0994C28.3283 19.0194 29.2284 21.3309 30.3321 22.1445C31.3836 22.9205 33.7762 24.1722 34.8747 24.7333C34.9842 23.8801 35.3391 21.8899 35.4174 21.5895C35.5139 21.214 35.7592 21.1202 36.0853 21.0263C36.4115 20.9324 39.245 21.0033 39.245 21.0033C38.6005 20.7071 37.8856 20.1543 37.5647 19.8935C37.4969 19.8956 37.429 19.8998 37.3612 19.9019C35.8896 19.9332 34.1258 19.6661 32.6177 19.3574C30.6739 18.961 29.1658 18.5521 28.0073 18.1036L28.0047 18.0994ZM36.8759 27.6873C36.9985 26.9968 37.2986 26.6526 37.2046 26.5816C37.1107 26.5107 36.9124 26.5879 36.7559 26.8549C36.5993 27.122 36.2184 27.8041 36.5132 28.9411C36.808 30.078 38.0109 30.9604 38.457 31.1419C38.9032 31.3234 39.5138 31.4861 39.3937 31.2108C39.3937 31.2108 38.564 31.0522 37.8778 30.2762C37.1916 29.5001 36.7506 28.382 36.8759 27.6894V27.6873ZM37.0637 21.8378C36.9698 21.7815 36.8028 21.7251 36.7533 21.844C36.7011 21.963 36.4115 24.1951 36.448 24.2389C36.4871 24.2827 36.6724 24.3808 36.7011 24.1597C36.7011 24.1597 37.1577 21.8941 37.0637 21.8378ZM36.0931 30.078C35.7461 29.5732 35.7018 28.7971 35.6261 28.7262C35.613 28.7137 35.5974 28.7053 35.5791 28.697C35.54 28.722 35.4982 28.7491 35.4435 28.7846C35.4043 28.8096 35.36 28.8388 35.313 28.868C35.313 29.1142 35.4121 29.7484 35.6209 30.1614C35.9731 30.8561 37.0898 31.361 37.0403 30.9521C37.0403 30.9521 36.4428 30.5849 36.0957 30.078H36.0931ZM37.7552 24.9586C37.8308 25.015 38.0161 25.0713 38.0317 24.9816C38.0317 24.9816 38.7571 22.0068 38.6266 21.9504C38.4962 21.8941 38.1831 21.8274 38.1492 21.9317C38.1152 22.0339 37.6795 24.9002 37.7552 24.9586ZM39.3442 15.569C38.3188 13.875 34.812 10.9586 32.5212 9.89679C30.713 9.05816 28.6544 8.85372 28.0386 8.80991C28.19 9.17081 28.263 9.53797 28.2735 9.91139C28.2891 10.4016 28.2682 10.8627 28.19 11.2903C28.2004 11.2715 28.2082 11.259 28.2082 11.259C28.3335 11.4885 28.4222 11.7305 28.4848 11.9787C29.3432 12.0705 33.0508 12.5003 33.6223 13.1365C33.6223 13.1365 30.58 12.5837 28.584 12.5483C28.6205 12.9196 28.6126 13.2909 28.584 13.6435C29.4685 13.7144 33.377 14.0983 36.0123 15.4897C36.0123 15.4897 36.5341 15.7421 36.2758 15.7192C36.2758 15.7192 31.4175 14.6219 28.4613 14.6281C28.4013 15.0349 28.3517 15.3562 28.3909 15.5356C28.5213 16.1197 29.1006 15.9299 29.1006 15.9299C31.6289 15.9048 35.0599 16.5933 36.5054 17.0898C37.9509 17.5863 38.3918 17.5758 38.7284 16.6913C38.898 16.2428 38.8249 15.7776 38.7101 15.4271C38.9632 15.788 39.2085 16.2073 39.3207 16.6058C39.5633 17.4569 39.7094 18.5751 38.2013 19.3219C38.0552 19.3657 37.9013 19.4033 37.7473 19.4325C38.5692 19.3782 39.172 19.2072 39.5164 18.9172C40.2548 18.2955 40.5078 17.4882 39.3468 15.5711L39.3442 15.569ZM43.3049 27.9272C43.2579 27.8834 43.2109 27.8396 43.1614 27.7979C43.1092 27.7541 43.057 27.7123 42.9996 27.6706C42.9631 27.6435 42.9265 27.6164 42.8874 27.5913C42.8196 27.5434 42.7517 27.4975 42.6787 27.4516C42.6343 27.4244 42.5874 27.3994 42.543 27.3723C42.5039 27.3619 42.4647 27.3514 42.4334 27.3431C42.1986 27.2763 42.0081 27.1741 41.862 27.0448C41.7837 27.0135 41.7028 26.9864 41.622 26.9572C41.3297 26.8821 40.9592 26.7861 40.5418 26.6797C40.5209 26.6755 40.5 26.6693 40.4765 26.6672C39.0676 26.4335 38.0265 26.5879 37.7995 27.1866C37.5725 27.7853 37.6639 28.8826 38.5458 29.763C39.2502 30.466 40.2626 31.0084 41.2671 31.1086C41.3193 31.1127 41.3715 31.1169 41.4237 31.119C41.4445 31.119 41.4628 31.1211 41.4837 31.1211C41.528 31.1211 41.5724 31.1232 41.6141 31.1211C41.6481 31.1211 41.6846 31.1211 41.7185 31.119C41.7498 31.119 41.7837 31.1169 41.815 31.1148C41.8855 31.1106 41.9533 31.1023 42.0238 31.0919C42.1621 31.071 42.2899 31.046 42.4125 31.0188C42.4778 31.0042 42.5378 30.9876 42.6004 30.9688C42.6474 30.9563 42.6943 30.9437 42.7387 30.9291C42.8143 30.9041 42.8874 30.877 42.9579 30.8499C42.9761 30.8436 42.9918 30.8353 43.0074 30.829C43.0857 30.7956 43.1588 30.7602 43.2266 30.7226C43.6362 30.4931 43.8632 30.1823 43.9624 29.7964C43.9624 29.7964 44.1868 29.2227 43.7902 28.5238C43.7693 28.4863 43.7458 28.4487 43.7223 28.4112C43.6962 28.3695 43.6675 28.3277 43.6362 28.286C43.5684 28.1963 43.4927 28.1108 43.4118 28.0273C43.3779 27.9919 43.3388 27.9564 43.3023 27.923L43.3049 27.9272ZM44.9199 21.4414C44.7608 21.5457 44.6068 21.7147 44.4999 21.988C44.1711 22.8308 43.5058 26.3188 43.4458 26.6484C43.4092 26.8466 43.4901 27.0072 43.6336 27.1449C44.3381 27.2868 45.1104 27.4182 45.2591 27.4161C45.4992 27.4119 45.8071 27.341 45.9349 27.0364C46.4046 25.2882 47.1508 22.4449 47.1638 22.2196C47.1586 22.0798 46.9864 21.8148 46.5402 21.7001C46.2376 21.6229 45.5514 21.5186 44.9199 21.4435V21.4414ZM50.801 33.9311C50.7984 33.9832 50.7906 34.0354 50.7854 34.0875C51.0828 34.1063 51.3985 34.1293 51.7168 34.1522C51.756 33.8226 51.7899 33.4826 51.816 33.1217C52.0195 30.3346 50.5218 26.9968 48.0405 26.5065C47.2004 26.9884 46.4646 27.8709 45.9245 29.0162C46.6446 29.2978 47.9127 30.1844 48.3588 30.5077C48.638 30.2073 48.9485 30.0384 49.2668 30.053C50.2505 30.0947 50.9393 31.8324 50.801 33.9332V33.9311ZM52.3822 33.1488C52.3561 33.4993 52.3248 33.8497 52.2856 34.1981C52.677 34.2294 53.0606 34.2628 53.4128 34.292C53.4415 34.0062 53.465 33.7183 53.4728 33.4262C53.4911 32.6377 53.4284 31.8762 53.3006 31.1586C53.0188 30.4744 52.3013 28.8743 52.0378 28.7909C51.8395 28.7304 51.6151 28.7554 51.4663 28.7846C52.1813 30.1635 52.4813 31.8116 52.3848 33.1467L52.3822 33.1488ZM51.1324 17.363C51.4924 17.4215 51.9125 17.676 52.0351 18.0911C52.1134 18.354 52.0378 18.6544 51.9725 18.84C52.1108 18.8296 52.2256 18.8171 52.283 18.7983C52.4187 18.7503 52.4344 18.6544 52.3796 18.1453L52.3717 18.0828C52.33 17.678 52.116 17.3401 51.7534 17.0918C51.3411 16.9145 47.3386 16.7894 45.9975 16.8186C45.8932 16.8207 45.8071 16.8248 45.7366 16.829C45.6323 16.8353 45.5409 16.8394 45.4548 16.8415C46.0654 16.9625 47.0073 17.1503 47.3856 17.2274C47.9675 17.3464 48.7241 17.7928 48.925 18.0744C49.1259 18.356 49.1781 19.0799 49.4495 18.9652C49.7208 18.8505 49.8878 18.0994 49.7991 17.8804C49.7104 17.6634 49.4286 17.4715 49.3399 17.3192C49.2512 17.1669 50.7697 17.3109 51.1272 17.3693L51.1324 17.363ZM56.8308 26.1039C57.0317 26.0998 57.2665 25.9767 57.3396 25.9913C57.4126 26.0038 57.4387 26.7944 57.4544 27.2638C57.47 27.7332 57.5092 29.4605 57.2196 29.5836C57.2196 29.5836 57.217 29.5836 57.2143 29.5836C57.5144 29.5168 57.6057 29.4063 57.6057 29.4042C58.0258 28.7637 57.7571 26.0121 57.6344 25.7076C57.5353 25.5386 56.3377 24.1951 56.0637 23.9656C55.915 23.9469 55.4845 23.9344 55.0696 23.9281C55.701 25.6617 56.2724 28.117 56.5073 29.1977C56.5568 28.868 56.5934 28.4633 56.549 28.1755C56.4577 27.6059 56.0376 26.0038 56.0533 25.96C56.0689 25.9162 56.6273 26.1081 56.8282 26.1039H56.8308ZM55.1688 28.2923C55.2914 28.7783 55.3905 29.2665 55.5549 29.7588C55.7376 30.2553 56.082 30.7101 56.596 31.0335C56.6325 31.0564 56.6847 31.0522 56.7134 31.023C56.7421 30.9938 56.7369 30.9542 56.7029 30.9312L56.6951 30.925C56.2516 30.6141 55.9489 30.1656 55.8158 29.7046C55.688 29.231 55.6045 28.7345 55.5079 28.2464C55.3149 27.2638 55.1087 26.2771 54.7487 25.3091C54.4043 24.3328 53.7468 23.4107 52.8883 22.6535C52.2543 22.0944 51.5055 21.6167 50.6706 21.2558C50.6471 21.408 50.5871 21.5687 50.4592 21.7043C51.2002 22.036 51.8812 22.4657 52.4631 22.9664C52.8727 23.3169 53.238 23.7007 53.5459 24.1138C53.8537 24.5268 54.0912 24.967 54.2869 25.428C54.6782 26.3522 54.9313 27.3243 55.1688 28.2944V28.2923ZM54.0964 36.8579C54.3834 36.7682 54.9418 36.4219 55.0279 35.9066C55.1244 35.333 54.7617 34.9345 54.3469 34.8323C52.5335 34.6633 50.5714 34.5131 49.6373 34.4797C49.773 34.5569 49.9035 34.6633 50.013 34.8135C50.4018 35.3538 50.1696 35.8211 50.227 35.8524C50.2818 35.8837 54.5452 35.9797 54.566 36.1215C54.5791 36.2175 54.4173 36.6034 54.099 36.8579H54.0964ZM49.1912 40.3939C49.8278 40.4023 50.4488 40.1582 51.0202 39.6888C51.0698 39.597 51.0828 39.5115 51.0202 39.451C50.8219 39.257 50.4149 39.3988 50.4149 39.3988C50.4149 39.3988 51.1898 38.7229 51.3411 38.3245C51.422 38.1075 51.4089 37.9156 51.3776 37.7821C50.754 39.0546 49.7547 39.9892 48.1214 40.2333C48.4841 40.3355 48.8807 40.3918 49.1912 40.396V40.3939ZM47.2578 39.839C49.0816 39.8307 50.2974 39.0004 51.0254 37.1771C50.5923 37.1458 50.167 37.1124 49.7887 37.077C49.4808 37.4587 49.1311 37.6757 48.7711 37.6611C48.304 37.6423 47.9048 37.2376 47.6283 36.5951C47.0099 36.7995 45.9819 36.7056 45.3818 36.6243C45.7784 38.0074 46.4359 39.1381 47.2604 39.839H47.2578ZM33.6588 34.1042C34.6111 34.4818 37.4055 34.7864 39.9495 35.0451L40.4217 35.0931C42.7491 35.3288 48.1736 35.8774 48.6693 35.867C48.6745 35.867 48.6772 35.867 48.6824 35.867C48.925 35.8482 49.0685 35.6021 49.0607 35.383C49.0555 35.2433 48.9798 35.1473 48.9276 35.0972C47.6857 35.0054 36.8968 34.1939 35.1277 33.7663C33.2257 33.3032 32.8004 31.6906 33.21 30.3888C33.5101 29.4313 34.5772 28.7554 35.0912 28.43C35.1747 28.3778 35.2686 28.3173 35.2869 28.3006C35.6496 27.9418 35.4148 27.7082 35.2034 27.5621C34.846 27.316 34.2693 27.5434 33.3352 28.3006C32.7534 28.7721 32.1011 29.836 32.015 31.411C31.9446 32.6627 32.5603 33.6703 33.6588 34.1042ZM35.0286 30.5077C35.0286 30.5077 34.7181 30.2282 34.6216 29.8464C34.585 29.6983 34.5616 29.5523 34.5433 29.4313C34.4415 29.521 34.3398 29.617 34.2458 29.7171C34.2798 29.8402 34.3215 29.9654 34.3659 30.0592C34.4702 30.2762 34.9425 30.8603 35.026 30.5057L35.0286 30.5077ZM30.199 34.0291C30.6139 34.3692 31.4932 34.5632 32.1455 34.6654C32.2342 34.68 32.2759 34.582 32.195 34.5507C31.5375 34.3024 30.64 33.7892 30.3243 32.7983C29.912 31.5091 30.5304 29.8569 30.8096 29.2143C30.8461 29.1309 30.7209 29.0641 30.6374 29.1226C30.2382 29.3979 29.552 29.9904 29.2989 30.9542C28.9336 32.3456 29.4919 33.4554 30.199 34.0333V34.0291ZM26.7628 23.3127C26.9558 23.3315 28.2578 22.8183 28.2787 22.643C28.2787 22.643 26.3557 18.5521 26.1052 18.4916C25.8548 18.4311 24.9885 18.7795 24.9624 18.8463C24.9363 18.913 26.5671 23.2939 26.7601 23.3127H26.7628ZM24.0675 9.28346C24.3936 9.18959 27.3289 9.83003 27.4255 10.2222C27.5194 10.6061 27.4672 12.2458 26.421 13.1219C26.6688 12.9801 26.8097 12.8653 26.8489 12.832C27.4881 12.1665 27.7516 11.2674 27.7073 9.92182C27.6942 9.50877 27.5977 9.127 27.4177 8.77236C27.1489 8.59921 26.4888 8.19659 25.8652 7.99006C25.059 7.72095 23.984 7.65628 23.8927 7.39552C23.8013 7.13475 23.6448 6.58818 23.3317 6.24189C23.2952 6.20225 23.2613 6.16679 23.2299 6.13341C23.123 6.10003 23.016 6.06457 22.909 6.03119C23.1751 6.47345 23.4648 7.13475 23.5404 8.00884C23.6291 9.06025 23.4622 10.0428 22.3507 11.9475C22.1628 12.2708 21.941 12.5524 21.7036 12.8007C22.1837 12.5024 22.7707 11.9975 23.1438 11.1693C23.8587 9.57135 23.7439 9.37734 24.0701 9.28138L24.0675 9.28346ZM23.6892 31.8554C23.6474 32.2225 23.5978 32.5834 23.53 32.9527C23.4622 33.3511 23.4961 33.7558 23.5926 34.1397C23.6839 34.5235 23.864 34.8844 24.0023 35.2287C24.1249 35.5416 24.1197 35.9108 24.0049 36.2383V36.2467C23.9814 36.3072 24.0231 36.3698 24.0988 36.3865C24.1666 36.4011 24.2371 36.3739 24.2658 36.3239C24.3728 36.134 24.4302 35.9463 24.4615 35.7439C24.4928 35.5457 24.4823 35.3371 24.4249 35.1348C24.3127 34.7614 24.1927 34.413 24.1275 34.0625C24.0623 33.712 24.0597 33.3637 24.1379 33.0257C24.2214 32.6606 24.2867 32.281 24.3441 31.9075C24.4536 31.1565 24.498 30.4034 24.5163 29.6462C24.511 28.891 24.4823 28.1337 24.378 27.3806C24.1823 25.8745 23.7753 24.3766 23.1047 22.9455C22.4994 21.648 21.6514 20.4192 20.6129 19.299L20.1929 20.3066C20.3416 20.4755 20.4903 20.6445 20.6312 20.8177C21.2391 21.5812 21.7584 22.3906 22.1889 23.2313C22.8777 24.5748 23.3239 26.0038 23.5665 27.4557C23.697 28.1817 23.7492 28.916 23.7831 29.6483C23.7935 30.3826 23.7753 31.119 23.697 31.8512L23.6892 31.8554ZM11.3687 39.5303C12.2662 39.7097 13.289 39.7994 14.0665 39.7827C18.5752 39.6867 22.0897 35.0618 21.9019 29.473C21.8732 28.6073 21.7532 27.7603 21.5549 26.9467C21.8993 29.3166 21.9071 32.4979 20.4721 35.1577C20.4721 35.1577 19.5406 36.9059 19.2771 36.7077C19.2771 36.7077 20.7434 34.5674 20.4955 33.6641C20.2451 32.7608 19.4806 32.8943 19.4806 32.8943C19.4806 32.8943 19.6319 31.9764 19.6658 30.6454C19.0683 35.5666 15.632 39.3675 11.3634 39.4593L11.1991 39.4635C11.2565 39.4864 11.3139 39.5073 11.3687 39.5303ZM10.312 39.0317C10.6042 39.0254 10.9303 39.0171 11.1234 39.0129L11.3478 39.0066C15.8564 38.9107 19.371 34.2857 19.1831 28.697C19.1335 27.243 18.8126 25.8077 18.283 24.4934C18.2099 24.3307 18.1186 24.1451 18.0142 23.9427C17.9986 23.9427 17.9855 23.9448 17.9673 23.9448C17.8864 23.9448 17.7977 23.9448 17.7011 23.9385L16.3704 27.122C16.6548 27.8458 16.8323 28.6845 16.861 29.5815C16.9523 32.3477 15.6242 34.6174 13.8917 34.655C12.1592 34.6925 10.6798 32.4812 10.5885 29.715C10.4972 26.9488 11.8253 24.6791 13.5578 24.6415C14.2257 24.6269 14.8571 24.9503 15.3868 25.5094L16.2452 23.4566C15.9347 23.2543 15.7442 23.0603 15.7286 23.0457C15.6712 22.9852 15.6529 22.9059 15.6842 22.835L16.2452 21.4957C15.966 21.2224 15.6608 20.9658 15.3268 20.7467C13.8056 19.7412 11.867 19.7412 10.8234 19.8351C7.45492 21.2432 5.11449 25.209 5.26843 29.8318C5.40411 33.9165 7.4523 37.4066 10.312 39.0338V39.0317ZM21.6462 14.4049C21.761 14.5196 18.0925 22.6702 18.0925 22.6702C17.7898 22.9414 17.7924 22.4282 17.8942 22.2049C17.996 21.9838 20.8974 14.4925 21.0565 14.3131C21.2157 14.1337 21.5314 14.2881 21.6462 14.4028V14.4049ZM44.3042 25.6554C44.2259 26.0372 44.2624 26.5942 44.526 26.7777C44.7895 26.9634 45.3452 27.1699 45.1261 27.1887C45.1261 27.1887 44.0589 27.0802 43.8685 26.8779C43.678 26.6776 44.8234 22.0381 44.9513 21.9609C45.0765 21.8858 45.0608 21.988 45.0608 21.988C45.0452 22.0318 44.3825 25.2695 44.3042 25.6512V25.6554Z" fill="#222222" stroke="#222222" stroke-width="2" mask="url(#path-2-inside-1_90_1530)"/>
</svg>
