<svg width="400" height="164" viewBox="0 0 400 164" fill="none" xmlns="http://www.w3.org/2000/svg">
<mask id="mask0_6_1690" style="mask-type:alpha" maskUnits="userSpaceOnUse" x="0" y="0" width="400" height="164">
<rect width="400" height="164" fill="#D9D9D9"/>
</mask>
<g mask="url(#mask0_6_1690)">
<path d="M237.949 37.9783L261.608 32.5983C263.178 21.7283 263.408 10.9083 262.358 0.338303L238.939 -6.0717C238.099 -10.8217 236.959 -15.4917 235.519 -20.0517L253.309 -36.5117C249.279 -46.5317 244.059 -56.0417 237.789 -64.8217L214.33 -58.6717C211.251 -62.3517 207.951 -65.8217 204.401 -69.0917L211.571 -92.2417C203.191 -98.8317 193.951 -104.472 183.962 -108.982L166.733 -91.9417C163.413 -93.1417 160.023 -94.2017 156.543 -95.1017C155.333 -95.4117 154.133 -95.6717 152.933 -95.9417L147.564 -119.602C136.684 -121.172 125.865 -121.412 115.305 -120.362L108.886 -96.9317C104.146 -96.0917 99.476 -94.9517 94.9162 -93.5117L78.457 -111.302C68.4275 -107.272 58.9279 -102.062 50.1484 -95.7817L56.3081 -72.3117C52.6383 -69.2417 49.1484 -65.9317 45.8986 -62.4017L22.7497 -69.5717C16.17 -61.2017 10.5303 -51.9617 6.01052 -41.9617L23.0597 -24.7417C21.8598 -21.4217 20.7898 -18.0317 19.8898 -14.5517C19.5798 -13.3517 19.3199 -12.1517 19.0499 -10.9417L-4.60899 -5.5717C-6.16891 5.2983 -6.40888 16.1183 -5.36893 26.6883L18.0499 33.0983C18.8999 37.8383 20.0298 42.5083 21.4698 47.0683L3.69063 63.5383C7.72043 73.5683 12.9302 83.0783 19.2199 91.8483L42.6788 85.6983C45.7586 89.3783 49.0584 92.8483 52.6083 96.1083L45.4386 119.258C53.8082 125.838 63.0478 131.478 73.0373 135.988L90.2664 118.938C93.5863 120.138 96.9861 121.208 100.466 122.108C101.666 122.418 102.866 122.668 104.066 122.938L109.435 146.608C120.315 148.178 131.124 148.408 141.694 147.368L148.114 123.938C152.853 123.088 157.533 121.958 162.083 120.518L178.552 138.298C188.572 134.268 198.081 129.058 206.851 122.778L200.711 99.3283C204.371 96.2483 207.851 92.9383 211.121 89.3983L234.259 96.5683C240.849 88.1983 246.479 78.9483 250.999 68.9583L233.959 51.7383C235.149 48.4183 236.229 45.0283 237.129 41.5383C237.439 40.3383 237.699 39.1383 237.959 37.9383L237.949 37.9783ZM216.62 36.2683C204.041 84.9483 154.403 114.218 105.746 101.648C57.078 89.0883 27.8094 39.4283 40.3788 -9.2317C52.9482 -57.9017 102.596 -87.1717 151.253 -74.5917C199.921 -62.0217 229.18 -12.3717 216.62 36.2783V36.2683Z" fill="white"/>
<path d="M366.679 173.925L383.038 170.205C384.123 162.689 384.282 155.207 383.556 147.899L367.363 143.466C366.782 140.182 365.994 136.953 364.999 133.8L377.299 122.419C374.512 115.491 370.903 108.915 366.568 102.844L350.347 107.097C348.218 104.552 345.936 102.153 343.482 99.8917L348.439 83.8848C342.645 79.3281 336.256 75.4284 329.349 72.31L317.436 84.0922C315.141 83.2625 312.797 82.5295 310.39 81.9072C309.554 81.6929 308.724 81.5131 307.894 81.3264L304.182 64.9668C296.659 63.8813 289.178 63.7153 281.876 64.4414L277.438 80.6419C274.16 81.2227 270.931 82.0109 267.779 83.0066L256.398 70.7058C249.463 73.4924 242.894 77.0948 236.824 81.437L241.083 97.6652C238.545 99.788 236.132 102.077 233.885 104.517L217.879 99.5598C213.329 105.347 209.43 111.736 206.305 118.651L218.093 130.557C217.264 132.853 216.524 135.197 215.902 137.603C215.687 138.433 215.507 139.262 215.321 140.099L198.962 143.812C197.883 151.328 197.717 158.81 198.436 166.118L214.629 170.55C215.217 173.828 215.998 177.057 216.994 180.21L204.701 191.598C207.487 198.533 211.089 205.109 215.438 211.173L231.659 206.92C233.788 209.465 236.07 211.864 238.525 214.118L233.567 230.125C239.354 234.675 245.743 238.575 252.65 241.693L264.563 229.904C266.859 230.734 269.21 231.473 271.616 232.096C272.446 232.31 273.275 232.483 274.105 232.67L277.818 249.036C285.34 250.122 292.815 250.281 300.123 249.562L304.562 233.361C307.839 232.773 311.075 231.992 314.221 230.996L325.609 243.29C332.537 240.504 339.112 236.901 345.176 232.559L340.93 216.345C343.461 214.215 345.867 211.926 348.128 209.479L364.127 214.436C368.684 208.649 372.576 202.253 375.702 195.345L363.92 183.439C364.743 181.143 365.489 178.799 366.112 176.386C366.326 175.556 366.506 174.727 366.686 173.897L366.679 173.925ZM351.931 172.742C343.233 206.402 308.911 226.64 275.267 217.949C241.615 209.264 221.378 174.927 230.069 141.281C238.76 107.629 273.089 87.3904 306.733 96.0887C340.384 104.78 360.615 139.11 351.931 172.749V172.742Z" fill="white"/>
</g>
</svg>
