<svg width="419" height="264" viewBox="0 0 419 264" fill="none" xmlns="http://www.w3.org/2000/svg">
<g clip-path="url(#clip0_60_479)">
<path d="M399.483 170.139L344.565 155.31C344.614 155.457 344.661 155.615 344.708 155.784C344.841 156.262 344.975 156.848 345.106 157.521C345.351 158.775 345.587 160.345 345.786 162.096L399.483 170.139ZM382.681 143.516L310.733 121.208C310.266 121.501 309.749 121.774 309.172 122.018C312.199 124.219 315.104 126.784 317.633 129.567L382.681 143.516ZM115.974 252.648C110.708 256.967 104.973 260.468 98.8906 263.087L256.851 260.629C255.112 259.303 253.452 257.825 251.872 256.21L115.974 252.648ZM232.815 230.4L232.814 230.4C223.659 230.608 220.039 229.656 217.99 228.687L217.972 228.702L217.678 228.555C217.062 228.247 216.504 227.917 215.995 227.601L150.823 223.786C148.967 227.541 146.118 231.319 142.461 233.444C142.29 233.545 142.116 233.645 141.939 233.742L238.823 234.961C238.259 233.427 237.727 231.849 237.245 230.228C235.858 230.298 234.35 230.365 232.815 230.4ZM344.008 183.883C343.684 184.416 342.874 185.532 341.307 186.619L407.398 193.36L345.02 181.559C344.837 182.117 344.632 182.642 344.401 183.123H344.469L344.008 183.883ZM327.52 206.032V207.106L327.474 207.068C327.435 208.087 327.371 209.145 327.285 210.242L397.241 215.068L327.52 204.869V204.87V204.873V204.877V204.88V204.884V204.887V204.891V204.894V204.897V204.901V204.904V204.908V204.911V204.914V204.918V204.921V204.925V204.928V204.931V204.935V204.938V204.942V204.945V204.948V204.952V204.955V204.959V204.962V204.965V204.969V204.972V204.976V204.979V204.982V204.986V204.989V204.993V204.996V205V205.003V205.006V205.01V205.013V205.017V205.02V205.023V205.027V205.03V205.034V205.037V205.04V205.044V205.047V205.051V205.054V205.057V205.061V205.064V205.068V205.071V205.074V205.078V205.081V205.085V205.088V205.091V205.095V205.098V205.102V205.105V205.108V205.112V205.115V205.119V205.122V205.125V205.129V205.132V205.135V205.139V205.142V205.146V205.149V205.152V205.156V205.159V205.163V205.166V205.169V205.173V205.176V205.18V205.183V205.186V205.19V205.193V205.197V205.2V205.203V205.207V205.21V205.214V205.217V205.22V205.224V205.227V205.231V205.234V205.237V205.241V205.244V205.247V205.251V205.254V205.258V205.261V205.264V205.268V205.271V205.275V205.278V205.281V205.285V205.288V205.292V205.295V205.298V205.302V205.305V205.309V205.312V205.315V205.319V205.322V205.325V205.329V205.332V205.336V205.339V205.342V205.346V205.349V205.353V205.356V205.359V205.363V205.366V205.37V205.373V205.376V205.38V205.383V205.386V205.39V205.393V205.397V205.4V205.403V205.407V205.41V205.414V205.417V205.42V205.424V205.427V205.43V205.434V205.437V205.441V205.444V205.447V205.451V205.454V205.458V205.461V205.464V205.468V205.471V205.474V205.478V205.481V205.485V205.488V205.491V205.495V205.498V205.502V205.505V205.508V205.512V205.515V205.518V205.522V205.525V205.529V205.532V205.535V205.539V205.542V205.546V205.549V205.552V205.556V205.559V205.562V205.566V205.569V205.573V205.576V205.579V205.583V205.586V205.589V205.593V205.596V205.6V205.603V205.606V205.61V205.613V205.617V205.62V205.623V205.627V205.63V205.633V205.637V205.64V205.644V205.647V205.65V205.654V205.657V205.66V205.664V205.667V205.671V205.674V205.677V205.681V205.684V205.688V205.691V205.694V205.698V205.701V205.704V205.708V205.711V205.715V205.718V205.721V205.725V205.728V205.731V205.735V205.738V205.742V205.745V205.748V205.752V205.755V205.758V205.762V205.765V205.769V205.772V205.775V205.779V205.782V205.785V205.789V205.792V205.796V205.799V205.802V205.806V205.809V205.813V205.816V205.819V205.823V205.826V205.829V205.833V205.836V205.84V205.843V205.846V205.85V205.853V205.856V205.86V205.863V205.867V205.87V205.873V205.877V205.88V205.883V205.887V205.89V205.894V205.897V205.9V205.904V205.907V205.91V205.914V205.917V205.921V205.924V205.927V205.931V205.934V205.937V205.941V205.944V205.948V205.951V205.954V205.958V205.961V205.964V205.968V205.971V205.975V205.978V205.981V205.985V205.988V205.991V205.995V205.998V206.002V206.005V206.008V206.012V206.015V206.018V206.022V206.025V206.029V206.032ZM367.882 116.473L206.206 61.6298C213.758 66.9744 221.65 73.7436 227.845 80.1973L289.44 96.1552C293.432 96.3605 297.342 96.6713 300.547 97.1367C302.156 97.3704 303.597 97.6443 304.786 97.9665C305.963 98.2853 306.939 98.6631 307.585 99.1265C308.635 99.8713 309.557 100.69 310.365 101.571L367.882 116.473ZM306.462 257.642C305.593 258.428 304.708 259.18 303.805 259.891L359.425 259.031L306.462 257.642ZM321.305 236.017L370.345 236.631L322.184 233.814C321.9 234.562 321.609 235.294 321.305 236.017Z" fill="#FC1927" stroke="#222222"/>
<mask id="path-2-inside-1_60_479" fill="white">
<path d="M29.9851 114.579C28.7066 114.694 27.4584 114.643 26.2864 114.323C21.9789 113.158 16.6821 108.061 18.265 104.066C19.848 100.071 33.6685 91.133 53.0143 87.458C63.9429 85.3836 78.2809 85.3196 92.5885 89.0842C93.1517 86.5617 95.7849 82.9378 96.9417 81.4397C96.3024 81.2604 95.6479 81.0683 95.0087 80.8762C95.0087 80.8762 95.0695 80.8762 95.1 80.8762C83.1516 77.8031 76.3631 64.5883 79.8487 50.4901C81.9948 41.7827 87.5809 34.7271 94.4455 30.8472C91.8123 28.7472 89.7574 27.2362 88.9812 26.9801C88.007 26.66 84.0192 26.4679 80.4271 26.4039C80.077 27.7612 79.3768 28.7984 78.357 29.4259C76.8502 30.3606 72.4513 31.4107 68.7983 30.9369C67.4589 30.7576 66.2108 30.3735 65.2366 29.6948C64.7648 29.3619 64.3995 28.9393 64.1103 28.4655C56.3324 28.6576 41.1116 28.632 40.4723 28.6064C39.6504 28.5808 38.3566 25.9557 38.1891 24.2783C38.037 22.6008 38.3109 20.5136 39.2242 20.0783C39.2242 20.0783 54.7799 18.9514 64.0951 18.9514C64.156 18.7465 64.2168 18.5545 64.2473 18.4392L64.4299 18.0935C64.6126 17.863 66.3021 15.8526 70.914 15.7374C72.2839 15.699 73.5472 15.8654 74.704 16.1727C73.045 13.8294 71.4163 11.6014 70.9901 11.1788C70.7162 11.0251 69.7877 10.8203 68.5091 10.5898C67.1544 12.613 64.3842 14.4057 58.8743 14.649C57.6414 14.7002 56.5455 14.649 55.5714 14.5337C50.2593 13.8294 48.7068 10.6538 48.4024 7.87512C48.4024 7.84951 48.4024 7.8111 48.4024 7.78549C48.3567 5.68547 50.2441 1.39581 57.6719 0.243364C62.7861 -0.550544 65.7237 0.845198 67.2762 2.17691C69.1027 3.72632 70.0008 6.05682 69.5594 8.13122C69.5594 8.19525 69.5289 8.27208 69.5137 8.3361C71.462 8.73306 72.6796 9.15562 73.1515 9.6166C74.1408 10.5898 78.3418 16.6209 79.6203 18.4776C83.5626 18.5161 90.1075 18.6953 92.3754 19.4764C93.9128 20.0014 98.7225 23.7789 103.563 27.7868C104.278 27.6972 104.994 27.646 105.724 27.6332C107.109 27.6076 108.494 27.6972 109.879 27.9405C109.879 27.9405 133.167 32.6271 146.836 38.9656C150.504 40.6686 153.472 42.4613 155.892 44.3309C161.98 40.2717 180.55 28.0045 184.02 27.2362C186.775 26.6216 194.37 27.2362 198.937 27.6844C200.733 25.7252 206.638 19.3484 207.947 18.3496C208.556 17.8886 210.048 17.5557 212.377 17.338C212.377 17.2612 212.362 17.1843 212.346 17.0947C212.194 14.6746 213.64 12.1136 216.015 10.5642C218.039 9.24526 221.677 8.00317 227.461 9.55258C235.847 11.8062 237.293 16.941 236.882 19.3484C236.882 19.3868 236.882 19.4124 236.867 19.4508C236.045 22.588 233.701 26.0326 227.43 26.1734C226.289 26.199 225.01 26.1094 223.579 25.8917C217.247 24.9313 214.355 22.524 213.138 20.0526C211.631 20.1423 210.52 20.2703 210.17 20.4112C209.591 20.8466 207.339 23.1899 205.01 25.674C206.395 25.4563 207.902 25.4307 209.47 25.6356C214.782 26.3399 216.395 28.8625 216.562 29.1442L216.715 29.5667C216.745 29.7204 216.776 29.9381 216.806 30.1814C227.582 31.3466 245.376 34.5735 245.376 34.5735C246.35 35.1753 246.334 37.6083 245.847 39.5034C245.376 41.3985 243.427 44.2284 242.468 44.1644C241.738 44.1132 224.127 42.2437 215.162 41.0528C214.751 41.565 214.249 42.0004 213.64 42.3205C212.407 42.9735 210.9 43.2681 209.317 43.2937C205.01 43.3961 200.109 41.6418 198.526 40.3741C197.46 39.5162 196.836 38.2485 196.654 36.6479C192.498 36.2893 187.841 35.9948 186.669 36.2509C184.325 36.7375 171.554 45.0223 162.483 51.2455C162.574 51.2455 162.65 51.2071 162.757 51.2071C163.381 51.2327 178.297 51.8602 191.524 58.3139C204.873 64.8316 225.086 82.3872 231.981 93.2714C233.777 93.7196 252.773 98.4447 261.494 100.289C261.54 100.289 261.662 100.34 261.723 100.353C261.723 100.353 262.986 100.724 266.761 100.481C269.044 100.34 301.054 100.481 304.143 102.696C307.005 104.758 308.694 107.536 309.014 110.737L309.044 111.122C309.364 114.284 309.608 116.781 306.487 117.921C305.315 118.344 303.474 118.433 301.145 118.536C298.831 118.638 296.015 118.779 294.326 119.33C301.647 121.955 313.185 129.599 318.268 139.152C318.999 140.509 319.714 142.186 320.445 144.056C327.568 144.082 328.451 144.427 328.755 144.543C330.46 145.208 339.09 155.977 339.441 156.605C340.293 158.141 342.363 176.683 339.243 181.703C339.075 182.01 337.492 184.532 331.526 184.661C331.404 184.661 331.267 184.661 331.145 184.661C332.104 187.529 333.261 188.886 333.535 189.936C333.9 191.281 333.124 192.369 328.862 194.226C325.787 195.558 323.017 195.276 321.693 195.007C322.074 198.554 322.241 202.191 322.165 205.917C322.104 208.286 321.921 210.616 321.678 212.921C322.469 213.587 323.139 214.394 323.656 215.328C333.291 216.711 333.611 217.044 334.037 217.544C334.524 218.12 334.494 218.837 333.915 220.169C333.565 220.988 331.602 225.111 328.086 225.88C327.964 225.905 327.842 225.918 327.72 225.918C327.69 225.918 327.644 225.918 327.614 225.918C327.462 225.918 324.813 225.816 322.028 225.534C320.993 226.635 319.76 227.506 318.573 228.121C311.891 249.402 296.731 264.218 279.455 263.923C261.738 263.629 247.019 247.546 241.646 225.214C236.928 225.611 224.447 226.43 220.596 224.484C215.817 222.077 215.071 219.029 215.071 219.029C215.071 219.029 170.991 217.685 165.603 216.545C160.215 215.405 156.547 214.048 154.187 207.274C152.681 202.92 151.143 197.389 150.078 191.127C150.002 192.382 149.88 193.496 149.712 194.418C148.084 203.804 148.327 211.18 148.023 215.136C147.719 219.106 144.324 226.725 139.499 229.542C135.04 232.129 129.088 233.217 127.323 232.397C114.963 251.17 95.5718 263.437 73.4102 263.936C34.3839 264.82 1.58298 228.914 0.152222 183.751C-0.761047 155.055 11.2178 129.548 30.0764 114.528L29.9851 114.579ZM58.1742 2.61228C54.9778 3.11168 53.273 4.22571 52.3293 5.28852C52.3293 6.08243 52.4968 7.08122 53.1665 7.65744C54.0949 8.45135 57.8088 8.42574 60.3964 7.58061C60.6247 7.38854 60.9291 7.27329 61.264 7.24768C61.6445 7.06841 61.9793 6.87634 62.2533 6.64585C63.5775 5.55743 63.9581 4.05924 64.0494 3.11168C62.5578 2.42021 60.5486 2.24094 58.1742 2.61228ZM77.6721 21.9606C77.2307 19.2203 74.0038 18.0679 71.0053 18.1447C69.0875 18.1959 67.9612 18.6569 67.3524 19.0154C67.5654 19.0154 67.7785 19.0411 67.9916 19.0539C68.9201 19.1051 69.7572 19.5148 70.2899 20.1679C70.8379 20.8466 71.3859 21.8197 71.3554 22.985C71.3098 25.2643 69.8485 27.7484 68.5548 28.2094C68.4787 28.235 68.2808 28.2606 68.0068 28.2862C68.8896 28.5808 70.0008 28.6704 71.1271 28.632C71.7359 28.0814 72.3143 27.4283 72.6187 26.7624C73.395 25.0466 72.6188 22.7417 73.4711 22.5368C74.3235 22.3319 76.4392 23.0874 77.1241 22.8569C77.322 22.7929 77.5503 22.7545 77.7786 22.7289C77.7482 22.4728 77.7177 22.2167 77.6721 21.935V21.9606ZM221.022 16.3264C221.296 16.6209 221.661 16.877 222.057 17.1331C222.453 17.1971 222.773 17.3764 223.016 17.6325C225.862 18.9258 230.139 19.4124 231.357 18.6185C232.225 18.0423 232.59 16.9154 232.727 16.0063C231.829 14.6746 230.033 13.1892 226.441 12.216C223.747 11.4989 221.418 11.4477 219.561 12.0623C219.515 13.1508 219.683 14.9179 221.022 16.3264ZM201.037 33.0497C201.798 33.3954 204.34 32.7936 205.314 33.1393C206.288 33.4723 204.979 36.0204 205.573 38.082C205.801 38.8759 206.364 39.6955 206.973 40.3997C208.267 40.579 209.561 40.6174 210.642 40.3997C210.322 40.3357 210.109 40.2845 210.033 40.2333C208.617 39.5418 207.354 36.5198 207.689 33.9076C207.871 32.5631 208.678 31.5131 209.409 30.8088C210.124 30.1302 211.174 29.7716 212.255 29.8228C212.483 29.8228 212.742 29.8484 212.986 29.8613C212.346 29.3747 211.113 28.7088 208.906 28.4143C205.466 27.9533 201.539 28.8625 200.535 31.9485C200.428 32.2686 200.367 32.5503 200.276 32.8448C200.535 32.896 200.794 32.9729 201.007 33.0625L201.037 33.0497ZM327.34 223.152C328.664 222.704 330.064 220.63 330.658 219.324C329.303 219.067 326.975 218.683 324.463 218.312C324.555 219.093 324.539 219.913 324.402 220.783C324.281 221.539 324.037 222.256 323.733 222.922C325.346 223.05 326.762 223.127 327.355 223.152H327.34ZM94.7955 107.933C92.8625 107.741 90.8686 107.754 88.9051 108.01C86.8655 108.279 85.2521 108.74 83.5017 109.162C80.0922 110.059 76.911 111.032 73.7299 111.48C70.5487 111.954 67.398 111.839 64.3843 110.994C61.4162 110.187 58.4329 108.637 55.4344 107.19C54.4602 106.717 53.4861 106.243 52.4968 105.769C52.2989 105.679 52.101 105.577 51.8879 105.487C50.8377 105.001 49.7722 104.514 48.6763 104.053C47.7935 103.682 46.8955 103.336 45.9822 103.003C42.6641 101.825 38.9959 100.98 35.2516 101.147C31.5072 101.3 27.9608 102.478 24.9774 104.168C24.5969 104.386 24.4904 104.822 24.7491 105.142C24.9927 105.449 25.4797 105.539 25.845 105.359C28.7675 103.938 32.0247 103.106 35.282 103.144C38.5544 103.144 41.7508 104.028 44.7646 105.244C44.9016 105.295 45.0233 105.359 45.1603 105.423C48.037 106.627 50.7768 108.125 53.5623 109.662C54.3233 110.084 55.0995 110.507 55.8758 110.93C56.5912 111.314 57.3066 111.698 58.0372 112.069C58.7982 112.466 59.6201 112.825 60.4116 113.196C61.264 113.516 62.1164 113.887 63.0144 114.144C64.7952 114.72 66.6978 115.04 68.6157 115.219C70.5335 115.373 72.4513 115.283 74.3083 115.091C78.0374 114.669 81.4773 113.721 84.765 112.978C86.3784 112.62 88.0984 112.223 89.5291 112.095C91.0208 111.954 92.5429 111.992 94.0802 112.172C95.6023 112.351 97.1243 112.697 98.616 113.158C99.6814 113.491 100.793 113.913 101.767 114.348L103.441 110.123C102.436 109.713 101.417 109.354 100.351 109.034C98.5399 108.509 96.6677 108.125 94.7347 107.933H94.7955ZM83.5169 155.247C82.1013 154.441 80.6706 154.018 79.2703 154.044C72.1774 154.197 64.6582 165.863 65.1758 182.33C65.6933 198.797 73.9582 210.104 81.0511 209.938C83.0907 209.886 85.1455 208.875 87.0633 207.082C87.7787 205.891 89.2095 203.292 89.5444 201.012C89.9858 197.939 87.657 195.66 87.0177 195.404C86.3632 195.148 87.3526 192.651 87.9462 191.025C88.2506 190.192 88.5246 186.889 88.3419 183.098C88.1592 183.303 87.9766 183.495 87.7635 183.687C87.5504 189.859 85.3738 194.636 82.5428 194.7C79.4225 194.764 76.7284 189.117 76.5001 182.061C76.2718 175.018 78.6158 169.243 81.7361 169.179C82.6645 169.154 83.5473 169.653 84.3388 170.524L84.5671 169.948C82.2535 167.041 80.1227 167.617 79.5138 167.707C78.768 167.809 78.9811 164.621 78.2809 162.738C77.5807 160.856 74.0038 159.243 73.8821 158.705C73.7603 158.205 77.9613 153.096 83.5321 155.247H83.5169ZM84.2171 179.59L84.1409 179.756C84.0344 179.935 83.182 181.562 84.5823 182.317C85.039 182.292 86.2414 181.011 86.8807 179.654L100.062 146.438C99.2401 146.22 98.4486 145.925 97.7028 145.593L84.2018 179.59H84.2171ZM95.1609 140.394C96.6525 140.355 98.9204 140.496 101.812 141.341C104.43 142.11 105.952 142.98 106.835 143.659L128.906 88.0726C128.753 87.6757 128.023 86.344 124.294 84.8842C120.412 83.3604 117.84 84.4616 117.003 84.9354L95.0391 140.278C95.0391 140.278 95.1304 140.355 95.1609 140.394ZM91.31 21.6789C90.0467 21.2435 86.2414 21.013 82.4514 20.9106C82.7254 21.2179 82.9842 21.5764 83.0602 21.9222C83.2429 22.7289 85.039 23.2923 86.348 23.2283C87.657 23.1643 89.9249 22.4344 94.0497 25.7509C95.1152 26.6088 96.5612 27.8125 98.1289 29.1314C98.8443 28.8625 99.5597 28.632 100.275 28.4399C95.7545 24.7393 92.2232 22.0118 91.31 21.6917V21.6789ZM109.195 30.6424C108.083 30.4503 106.942 30.3606 105.8 30.3863C95.7088 30.6167 85.937 39.4906 83.0907 51.0535C81.4773 57.5968 82.1775 64.1017 85.0542 69.3774C87.7787 74.3713 92.1471 77.611 97.3526 78.5201C98.4638 78.7122 99.6053 78.8018 100.747 78.7762C100.762 78.7762 100.793 78.7762 100.808 78.7762C91.6296 75.7286 85.6174 66.1377 86.8959 55.3559C88.3571 42.8711 99.0117 33.5363 110.686 34.4967C114.37 34.804 117.703 36.1101 120.504 38.1333C117.855 34.2277 113.959 31.4747 109.195 30.6424ZM109.803 58.2627C108.007 64.2298 110.93 70.0048 116.333 71.2213C119.666 67.6871 122.239 63.1542 123.487 58.109C124.187 55.2919 124.415 52.526 124.278 49.8754C123.867 49.7218 123.456 49.5681 123 49.4785C117.52 48.3132 111.615 52.2443 109.819 58.2499L109.803 58.2627ZM129.271 35.9692C129.179 35.8412 129.073 35.7131 128.966 35.5851C126.851 34.9704 124.75 34.3814 122.772 33.8692C125.816 37.2881 127.657 41.0912 128.297 45.2528C129.621 53.909 129.88 60.0041 122.33 71.6182C120.549 74.3585 118.205 76.4585 115.663 78.0848C115.663 78.0848 114.415 79.0579 113.03 79.5829C111.615 80.2872 110.169 80.889 108.738 81.3756C109.94 81.6189 112.619 82.3488 114.552 83.0147C114.933 82.7458 116.394 81.8238 118.692 81.4781C121.828 79.3653 125.146 76.3561 127.46 72.1817C133.654 61.0285 134.583 55.3816 134.096 49.376C133.533 42.3077 130.519 37.6467 129.256 35.982L129.271 35.9692ZM180.976 34.2277C186.319 30.9625 188.815 32.0765 190.322 32.307C191.829 32.5375 194.005 32.1277 194.355 31.2314C194.507 30.8472 194.858 30.4631 195.223 30.1558C190.824 29.7972 186.395 29.5924 184.857 29.9253C182.94 30.3606 170.93 37.8772 159.469 45.4833C160.093 45.765 160.961 46.098 161.691 46.0851C162.97 46.0595 175.634 37.493 180.976 34.2277ZM163.472 111.109C165.359 116.756 170.611 130.944 177.049 135.938C183.183 140.701 197.141 148.384 203.549 151.829C204.188 146.591 206.258 134.375 206.715 132.531C207.278 130.227 208.708 129.65 210.611 129.074C212.514 128.498 229.044 128.933 229.044 128.933C225.284 127.115 221.114 123.722 219.241 122.121C218.846 122.134 218.45 122.159 218.054 122.172C209.47 122.364 199.18 120.725 190.383 118.83C179.043 116.397 170.245 113.887 163.487 111.134L163.472 111.109ZM215.223 169.96C215.938 165.722 217.689 163.609 217.141 163.174C216.593 162.738 215.436 163.212 214.523 164.851C213.61 166.49 211.387 170.677 213.107 177.656C214.827 184.635 221.844 190.051 224.447 191.165C227.05 192.279 230.611 193.278 229.911 191.588C229.911 191.588 225.071 190.615 221.068 185.851C217.065 181.088 214.492 174.224 215.223 169.973V169.96ZM216.319 134.055C215.771 133.71 214.797 133.364 214.508 134.094C214.203 134.824 212.514 148.525 212.727 148.794C212.955 149.063 214.036 149.665 214.203 148.307C214.203 148.307 216.867 134.401 216.319 134.055ZM210.657 184.635C208.632 181.536 208.374 176.773 207.932 176.337C207.856 176.26 207.765 176.209 207.658 176.158C207.43 176.312 207.186 176.478 206.867 176.696C206.638 176.849 206.38 177.029 206.106 177.208C206.106 178.719 206.684 182.612 207.902 185.147C209.957 189.411 216.471 192.51 216.182 190C216.182 190 212.696 187.747 210.672 184.635H210.657ZM220.352 153.212C220.794 153.557 221.875 153.903 221.966 153.352C221.966 153.352 226.197 135.092 225.436 134.747C224.675 134.401 222.849 133.991 222.651 134.632C222.453 135.259 219.911 152.853 220.352 153.212ZM229.622 95.5764C223.64 85.1787 203.183 67.2774 189.819 60.7596C179.271 55.612 167.262 54.3572 163.67 54.0883C164.553 56.3035 164.979 58.5572 165.04 60.8493C165.131 63.8584 165.009 66.6883 164.553 69.3134C164.614 69.1981 164.659 69.1213 164.659 69.1213C165.39 70.5298 165.907 72.0152 166.273 73.539C171.28 74.1024 192.909 76.7402 196.243 80.6458C196.243 80.6458 178.495 77.2524 166.851 77.0348C167.064 79.314 167.019 81.5933 166.851 83.7574C172.011 84.1927 194.812 86.5489 210.185 95.0898C210.185 95.0898 213.229 96.6392 211.722 96.4983C211.722 96.4983 183.381 89.7629 166.136 89.8013C165.786 92.2983 165.496 94.2702 165.725 95.3715C166.486 98.9569 169.865 97.7916 169.865 97.7916C184.614 97.638 204.629 101.864 213.062 104.911C221.494 107.959 224.066 107.895 226.03 102.465C227.019 99.7123 226.593 96.8568 225.923 94.7056C227.4 96.9209 228.83 99.4947 229.485 101.94C230.901 107.165 231.753 114.028 222.955 118.612C222.103 118.881 221.205 119.112 220.307 119.291C225.101 118.958 228.617 117.908 230.627 116.128C234.934 112.312 236.41 107.357 229.637 95.5892L229.622 95.5764ZM252.727 171.433C252.453 171.164 252.179 170.895 251.89 170.639C251.586 170.37 251.281 170.114 250.946 169.858C250.733 169.691 250.52 169.525 250.292 169.371C249.896 169.077 249.5 168.795 249.074 168.513C248.815 168.347 248.542 168.193 248.283 168.027C248.054 167.963 247.826 167.899 247.643 167.848C246.274 167.438 245.162 166.81 244.31 166.016C243.853 165.824 243.382 165.658 242.91 165.479C241.205 165.018 239.044 164.429 236.608 163.776C236.487 163.75 236.365 163.712 236.228 163.699C228.009 162.265 221.935 163.212 220.611 166.887C219.287 170.562 219.82 177.298 224.964 182.701C229.074 187.017 234.98 190.346 240.84 190.961C241.144 190.986 241.449 191.012 241.753 191.025C241.875 191.025 241.981 191.037 242.103 191.037C242.362 191.037 242.621 191.05 242.864 191.037C243.062 191.037 243.275 191.037 243.473 191.025C243.656 191.025 243.854 191.012 244.036 190.999C244.447 190.973 244.843 190.922 245.254 190.858C246.061 190.73 246.806 190.576 247.522 190.41C247.902 190.32 248.252 190.218 248.618 190.103C248.892 190.026 249.166 189.949 249.424 189.859C249.866 189.706 250.292 189.539 250.703 189.373C250.809 189.334 250.901 189.283 250.992 189.245C251.449 189.04 251.875 188.822 252.271 188.592C254.66 187.183 255.985 185.275 256.563 182.906C256.563 182.906 257.872 179.385 255.558 175.095C255.437 174.865 255.3 174.634 255.163 174.404C255.01 174.148 254.843 173.892 254.66 173.635C254.265 173.085 253.823 172.56 253.351 172.048C253.153 171.83 252.925 171.612 252.712 171.407L252.727 171.433ZM262.149 131.622C261.22 132.263 260.322 133.3 259.698 134.977C257.781 140.15 253.899 161.56 253.549 163.584C253.336 164.8 253.808 165.786 254.645 166.631C258.755 167.502 263.26 168.309 264.128 168.296C265.528 168.27 267.324 167.835 268.07 165.965C270.81 155.235 275.163 137.782 275.239 136.399C275.208 135.541 274.204 133.914 271.601 133.21C269.836 132.736 265.832 132.096 262.149 131.635V131.622ZM296.457 208.286C296.442 208.606 296.396 208.926 296.365 209.246C298.101 209.361 299.942 209.502 301.799 209.643C302.028 207.62 302.226 205.533 302.378 203.317C303.565 186.21 294.828 165.722 280.353 162.713C275.452 165.671 271.16 171.087 268.009 178.117C272.21 179.846 279.607 185.288 282.21 187.273C283.839 185.429 285.65 184.392 287.507 184.481C293.245 184.737 297.264 195.404 296.457 208.298V208.286ZM305.681 203.484C305.528 205.635 305.346 207.786 305.117 209.925C307.401 210.117 309.638 210.322 311.693 210.501C311.86 208.747 311.997 206.98 312.043 205.187C312.15 200.347 311.784 195.673 311.038 191.268C309.395 187.068 305.209 177.246 303.671 176.734C302.515 176.363 301.206 176.517 300.338 176.696C304.509 185.16 306.259 195.276 305.696 203.471L305.681 203.484ZM298.39 106.589C300.49 106.947 302.941 108.509 303.656 111.058C304.113 112.671 303.671 114.515 303.291 115.655C304.098 115.591 304.767 115.514 305.102 115.398C305.894 115.104 305.985 114.515 305.665 111.39L305.62 111.006C305.376 108.522 304.128 106.448 302.012 104.924C299.608 103.836 276.259 103.067 268.435 103.247C267.826 103.259 267.324 103.285 266.913 103.311C266.304 103.349 265.772 103.375 265.269 103.387C268.831 104.13 274.326 105.283 276.533 105.756C279.927 106.486 284.341 109.226 285.513 110.955C286.685 112.684 286.989 117.127 288.572 116.423C290.155 115.719 291.13 111.109 290.612 109.764C290.094 108.433 288.451 107.254 287.933 106.32C287.416 105.385 296.274 106.268 298.359 106.627L298.39 106.589ZM331.632 160.241C332.804 160.216 334.174 159.46 334.6 159.55C335.026 159.627 335.179 164.48 335.27 167.361C335.361 170.242 335.59 180.845 333.9 181.6C333.9 181.6 333.885 181.6 333.87 181.6C335.62 181.19 336.153 180.512 336.153 180.499C338.603 176.568 337.036 159.678 336.32 157.808C335.742 156.771 328.755 148.525 327.157 147.116C326.29 147.001 323.778 146.924 321.358 146.886C325.042 157.527 328.375 172.598 329.745 179.231C330.034 177.208 330.247 174.724 329.988 172.957C329.456 169.461 327.005 159.627 327.096 159.358C327.188 159.089 330.445 160.267 331.617 160.241H331.632ZM321.937 173.674C322.652 176.657 323.23 179.654 324.189 182.676C325.255 185.723 327.264 188.515 330.262 190.5C330.475 190.64 330.78 190.615 330.947 190.436C331.115 190.256 331.084 190.013 330.886 189.872L330.841 189.834C328.253 187.926 326.488 185.173 325.711 182.343C324.965 179.436 324.478 176.389 323.915 173.392C322.789 167.361 321.586 161.304 319.486 155.363C317.477 149.37 313.641 143.71 308.633 139.062C304.935 135.63 300.566 132.698 295.696 130.483C295.559 131.417 295.209 132.403 294.463 133.236C298.786 135.272 302.758 137.91 306.152 140.983C308.542 143.134 310.673 145.49 312.469 148.025C314.265 150.561 315.65 153.263 316.792 156.093C319.075 161.765 320.551 167.732 321.937 173.687V173.674ZM315.681 226.251C317.355 225.7 320.612 223.575 321.115 220.412C321.678 216.891 319.562 214.445 317.142 213.817C306.563 212.78 295.117 211.858 289.668 211.653C290.46 212.127 291.221 212.78 291.86 213.702C294.128 217.019 292.773 219.887 293.108 220.079C293.428 220.271 318.299 220.86 318.421 221.731C318.497 222.32 317.553 224.689 315.696 226.251H315.681ZM287.066 247.955C290.779 248.007 294.402 246.508 297.735 243.627C298.025 243.064 298.101 242.539 297.735 242.168C296.579 240.977 294.204 241.847 294.204 241.847C294.204 241.847 298.725 237.699 299.608 235.253C300.079 233.921 300.003 232.743 299.821 231.924C296.183 239.735 290.353 245.471 280.825 246.969C282.941 247.597 285.254 247.943 287.066 247.968V247.955ZM275.787 244.549C286.426 244.498 293.519 239.402 297.766 228.21C295.239 228.018 292.758 227.813 290.551 227.596C288.755 229.939 286.715 231.271 284.615 231.181C281.89 231.066 279.562 228.582 277.948 224.638C274.341 225.892 268.344 225.316 264.843 224.817C267.157 233.307 270.992 240.247 275.802 244.549H275.787ZM196.456 209.348C202.011 211.666 218.313 213.536 233.153 215.124L235.908 215.418C249.485 216.865 281.129 220.233 284.021 220.169C284.052 220.169 284.067 220.169 284.097 220.169C285.513 220.053 286.35 218.542 286.304 217.198C286.274 216.34 285.833 215.751 285.528 215.444C278.283 214.88 215.345 209.899 205.025 207.274C193.929 204.431 191.448 194.533 193.838 186.543C195.588 180.665 201.813 176.517 204.812 174.519C205.299 174.199 205.847 173.828 205.954 173.725C208.069 171.523 206.699 170.088 205.466 169.192C203.381 167.681 200.017 169.077 194.568 173.725C191.174 176.619 187.369 183.15 186.867 192.817C186.456 200.5 190.048 206.685 196.456 209.348ZM204.447 187.273C204.447 187.273 202.635 185.557 202.072 183.214C201.859 182.304 201.722 181.408 201.616 180.665C201.022 181.216 200.428 181.805 199.88 182.42C200.078 183.175 200.322 183.943 200.581 184.52C201.189 185.851 203.944 189.437 204.431 187.26L204.447 187.273ZM176.273 208.888C178.693 210.975 183.822 212.166 187.628 212.793C188.145 212.883 188.389 212.281 187.917 212.089C184.081 210.565 178.845 207.415 177.003 201.333C174.599 193.419 178.206 183.278 179.835 179.334C180.048 178.821 179.317 178.412 178.83 178.77C176.501 180.46 172.498 184.097 171.022 190.013C168.891 198.554 172.148 205.366 176.273 208.913V208.888ZM156.227 143.108C157.353 143.224 164.949 140.074 165.07 138.998C165.07 138.998 153.852 113.887 152.391 113.516C150.93 113.145 145.877 115.283 145.725 115.693C145.572 116.103 155.085 142.993 156.212 143.108H156.227ZM140.504 56.995C142.406 56.4188 159.53 60.3499 160.093 62.7572C160.641 65.1133 160.337 75.178 154.233 80.5561C155.679 79.6854 156.501 78.9811 156.729 78.7762C160.458 74.6914 161.996 69.1725 161.737 60.9133C161.661 58.3779 161.098 56.0346 160.047 53.8578C158.48 52.7949 154.629 50.3236 150.991 49.0559C146.288 47.4041 140.017 47.0071 139.484 45.4065C138.951 43.8059 138.038 40.451 136.212 38.3253C135.998 38.082 135.801 37.8644 135.618 37.6595C134.994 37.4546 134.37 37.2369 133.746 37.032C135.298 39.7467 136.988 43.8059 137.429 49.1711C137.947 55.6248 136.973 61.656 130.488 73.3469C129.393 75.3317 128.099 77.0604 126.714 78.5842C129.514 76.753 132.939 73.6542 135.116 68.5707C139.286 58.7621 138.616 57.5712 140.519 56.9822L140.504 56.995ZM138.297 195.545C138.053 197.798 137.764 200.014 137.368 202.28C136.973 204.726 137.17 207.21 137.734 209.566C138.266 211.922 139.317 214.138 140.123 216.25C140.839 218.171 140.808 220.438 140.139 222.448V222.499C140.002 222.871 140.245 223.255 140.686 223.357C141.082 223.447 141.493 223.28 141.661 222.973C142.285 221.808 142.62 220.655 142.802 219.413C142.985 218.197 142.924 216.916 142.589 215.674C141.935 213.382 141.234 211.244 140.854 209.092C140.473 206.941 140.458 204.803 140.915 202.728C141.402 200.487 141.782 198.157 142.117 195.865C142.757 191.255 143.015 186.632 143.122 181.984C143.091 177.349 142.924 172.701 142.315 168.078C141.174 158.833 138.799 149.639 134.887 140.855C131.356 132.89 126.409 125.348 120.351 118.472L117.901 124.656C118.768 125.694 119.636 126.731 120.458 127.794C124.004 132.48 127.033 137.449 129.545 142.609C133.563 150.855 136.166 159.627 137.581 168.539C138.342 172.995 138.647 177.503 138.845 181.997C138.906 186.504 138.799 191.025 138.342 195.519L138.297 195.545ZM66.4239 242.654C71.6599 243.755 77.6264 244.306 82.1622 244.204C108.464 243.615 128.966 215.226 127.87 180.921C127.703 175.607 127.003 170.409 125.846 165.415C127.855 179.961 127.901 199.489 119.529 215.815C119.529 215.815 114.096 226.546 112.558 225.329C112.558 225.329 121.112 212.191 119.666 206.647C118.205 201.102 113.746 201.922 113.746 201.922C113.746 201.922 114.628 196.287 114.826 188.118C111.341 218.325 91.2948 241.655 66.3934 242.219L65.4345 242.244C65.7694 242.385 66.1042 242.513 66.4239 242.654ZM60.2594 239.594C61.9641 239.555 63.8668 239.504 64.9931 239.479L66.3021 239.44C92.6037 238.851 113.106 210.463 112.01 176.158C111.721 167.233 109.849 158.423 106.759 150.356C106.333 149.357 105.8 148.218 105.191 146.975C105.1 146.975 105.024 146.988 104.917 146.988C104.446 146.988 103.928 146.988 103.365 146.95L95.6022 166.49C97.2613 170.934 98.2964 176.081 98.4638 181.587C98.9965 198.567 91.2491 212.499 81.1425 212.729C71.0358 212.96 62.4055 199.386 61.8728 182.407C61.3401 165.427 69.0875 151.496 79.1942 151.265C83.0907 151.176 86.7741 153.16 89.864 156.592L94.8717 143.992C93.0604 142.75 91.9492 141.559 91.8579 141.469C91.5231 141.098 91.4165 140.611 91.5992 140.176L94.8717 131.955C93.243 130.278 91.4622 128.703 89.5139 127.358C80.6402 121.186 69.3311 121.186 63.2427 121.763C43.5926 130.406 29.9394 154.748 30.8375 183.124C31.629 208.196 43.5773 229.619 60.2594 239.607V239.594ZM126.379 88.4312C127.049 89.1355 105.648 139.164 105.648 139.164C103.882 140.829 103.898 137.679 104.491 136.309C105.085 134.952 122.01 88.969 122.939 87.8678C123.867 86.7665 125.709 87.7141 126.379 88.4184V88.4312ZM258.557 157.488C258.1 159.832 258.313 163.251 259.851 164.377C261.388 165.517 264.63 166.785 263.351 166.9C263.351 166.9 257.126 166.234 256.015 164.992C254.904 163.763 261.586 135.285 262.332 134.811C263.062 134.35 262.971 134.977 262.971 134.977C262.88 135.246 259.013 155.119 258.557 157.463V157.488Z"/>
</mask>
<path d="M29.9851 114.579C28.7066 114.694 27.4584 114.643 26.2864 114.323C21.9789 113.158 16.6821 108.061 18.265 104.066C19.848 100.071 33.6685 91.133 53.0143 87.458C63.9429 85.3836 78.2809 85.3196 92.5885 89.0842C93.1517 86.5617 95.7849 82.9378 96.9417 81.4397C96.3024 81.2604 95.6479 81.0683 95.0087 80.8762C95.0087 80.8762 95.0695 80.8762 95.1 80.8762C83.1516 77.8031 76.3631 64.5883 79.8487 50.4901C81.9948 41.7827 87.5809 34.7271 94.4455 30.8472C91.8123 28.7472 89.7574 27.2362 88.9812 26.9801C88.007 26.66 84.0192 26.4679 80.4271 26.4039C80.077 27.7612 79.3768 28.7984 78.357 29.4259C76.8502 30.3606 72.4513 31.4107 68.7983 30.9369C67.4589 30.7576 66.2108 30.3735 65.2366 29.6948C64.7648 29.3619 64.3995 28.9393 64.1103 28.4655C56.3324 28.6576 41.1116 28.632 40.4723 28.6064C39.6504 28.5808 38.3566 25.9557 38.1891 24.2783C38.037 22.6008 38.3109 20.5136 39.2242 20.0783C39.2242 20.0783 54.7799 18.9514 64.0951 18.9514C64.156 18.7465 64.2168 18.5545 64.2473 18.4392L64.4299 18.0935C64.6126 17.863 66.3021 15.8526 70.914 15.7374C72.2839 15.699 73.5472 15.8654 74.704 16.1727C73.045 13.8294 71.4163 11.6014 70.9901 11.1788C70.7162 11.0251 69.7877 10.8203 68.5091 10.5898C67.1544 12.613 64.3842 14.4057 58.8743 14.649C57.6414 14.7002 56.5455 14.649 55.5714 14.5337C50.2593 13.8294 48.7068 10.6538 48.4024 7.87512C48.4024 7.84951 48.4024 7.8111 48.4024 7.78549C48.3567 5.68547 50.2441 1.39581 57.6719 0.243364C62.7861 -0.550544 65.7237 0.845198 67.2762 2.17691C69.1027 3.72632 70.0008 6.05682 69.5594 8.13122C69.5594 8.19525 69.5289 8.27208 69.5137 8.3361C71.462 8.73306 72.6796 9.15562 73.1515 9.6166C74.1408 10.5898 78.3418 16.6209 79.6203 18.4776C83.5626 18.5161 90.1075 18.6953 92.3754 19.4764C93.9128 20.0014 98.7225 23.7789 103.563 27.7868C104.278 27.6972 104.994 27.646 105.724 27.6332C107.109 27.6076 108.494 27.6972 109.879 27.9405C109.879 27.9405 133.167 32.6271 146.836 38.9656C150.504 40.6686 153.472 42.4613 155.892 44.3309C161.98 40.2717 180.55 28.0045 184.02 27.2362C186.775 26.6216 194.37 27.2362 198.937 27.6844C200.733 25.7252 206.638 19.3484 207.947 18.3496C208.556 17.8886 210.048 17.5557 212.377 17.338C212.377 17.2612 212.362 17.1843 212.346 17.0947C212.194 14.6746 213.64 12.1136 216.015 10.5642C218.039 9.24526 221.677 8.00317 227.461 9.55258C235.847 11.8062 237.293 16.941 236.882 19.3484C236.882 19.3868 236.882 19.4124 236.867 19.4508C236.045 22.588 233.701 26.0326 227.43 26.1734C226.289 26.199 225.01 26.1094 223.579 25.8917C217.247 24.9313 214.355 22.524 213.138 20.0526C211.631 20.1423 210.52 20.2703 210.17 20.4112C209.591 20.8466 207.339 23.1899 205.01 25.674C206.395 25.4563 207.902 25.4307 209.47 25.6356C214.782 26.3399 216.395 28.8625 216.562 29.1442L216.715 29.5667C216.745 29.7204 216.776 29.9381 216.806 30.1814C227.582 31.3466 245.376 34.5735 245.376 34.5735C246.35 35.1753 246.334 37.6083 245.847 39.5034C245.376 41.3985 243.427 44.2284 242.468 44.1644C241.738 44.1132 224.127 42.2437 215.162 41.0528C214.751 41.565 214.249 42.0004 213.64 42.3205C212.407 42.9735 210.9 43.2681 209.317 43.2937C205.01 43.3961 200.109 41.6418 198.526 40.3741C197.46 39.5162 196.836 38.2485 196.654 36.6479C192.498 36.2893 187.841 35.9948 186.669 36.2509C184.325 36.7375 171.554 45.0223 162.483 51.2455C162.574 51.2455 162.65 51.2071 162.757 51.2071C163.381 51.2327 178.297 51.8602 191.524 58.3139C204.873 64.8316 225.086 82.3872 231.981 93.2714C233.777 93.7196 252.773 98.4447 261.494 100.289C261.54 100.289 261.662 100.34 261.723 100.353C261.723 100.353 262.986 100.724 266.761 100.481C269.044 100.34 301.054 100.481 304.143 102.696C307.005 104.758 308.694 107.536 309.014 110.737L309.044 111.122C309.364 114.284 309.608 116.781 306.487 117.921C305.315 118.344 303.474 118.433 301.145 118.536C298.831 118.638 296.015 118.779 294.326 119.33C301.647 121.955 313.185 129.599 318.268 139.152C318.999 140.509 319.714 142.186 320.445 144.056C327.568 144.082 328.451 144.427 328.755 144.543C330.46 145.208 339.09 155.977 339.441 156.605C340.293 158.141 342.363 176.683 339.243 181.703C339.075 182.01 337.492 184.532 331.526 184.661C331.404 184.661 331.267 184.661 331.145 184.661C332.104 187.529 333.261 188.886 333.535 189.936C333.9 191.281 333.124 192.369 328.862 194.226C325.787 195.558 323.017 195.276 321.693 195.007C322.074 198.554 322.241 202.191 322.165 205.917C322.104 208.286 321.921 210.616 321.678 212.921C322.469 213.587 323.139 214.394 323.656 215.328C333.291 216.711 333.611 217.044 334.037 217.544C334.524 218.12 334.494 218.837 333.915 220.169C333.565 220.988 331.602 225.111 328.086 225.88C327.964 225.905 327.842 225.918 327.72 225.918C327.69 225.918 327.644 225.918 327.614 225.918C327.462 225.918 324.813 225.816 322.028 225.534C320.993 226.635 319.76 227.506 318.573 228.121C311.891 249.402 296.731 264.218 279.455 263.923C261.738 263.629 247.019 247.546 241.646 225.214C236.928 225.611 224.447 226.43 220.596 224.484C215.817 222.077 215.071 219.029 215.071 219.029C215.071 219.029 170.991 217.685 165.603 216.545C160.215 215.405 156.547 214.048 154.187 207.274C152.681 202.92 151.143 197.389 150.078 191.127C150.002 192.382 149.88 193.496 149.712 194.418C148.084 203.804 148.327 211.18 148.023 215.136C147.719 219.106 144.324 226.725 139.499 229.542C135.04 232.129 129.088 233.217 127.323 232.397C114.963 251.17 95.5718 263.437 73.4102 263.936C34.3839 264.82 1.58298 228.914 0.152222 183.751C-0.761047 155.055 11.2178 129.548 30.0764 114.528L29.9851 114.579ZM58.1742 2.61228C54.9778 3.11168 53.273 4.22571 52.3293 5.28852C52.3293 6.08243 52.4968 7.08122 53.1665 7.65744C54.0949 8.45135 57.8088 8.42574 60.3964 7.58061C60.6247 7.38854 60.9291 7.27329 61.264 7.24768C61.6445 7.06841 61.9793 6.87634 62.2533 6.64585C63.5775 5.55743 63.9581 4.05924 64.0494 3.11168C62.5578 2.42021 60.5486 2.24094 58.1742 2.61228ZM77.6721 21.9606C77.2307 19.2203 74.0038 18.0679 71.0053 18.1447C69.0875 18.1959 67.9612 18.6569 67.3524 19.0154C67.5654 19.0154 67.7785 19.0411 67.9916 19.0539C68.9201 19.1051 69.7572 19.5148 70.2899 20.1679C70.8379 20.8466 71.3859 21.8197 71.3554 22.985C71.3098 25.2643 69.8485 27.7484 68.5548 28.2094C68.4787 28.235 68.2808 28.2606 68.0068 28.2862C68.8896 28.5808 70.0008 28.6704 71.1271 28.632C71.7359 28.0814 72.3143 27.4283 72.6187 26.7624C73.395 25.0466 72.6188 22.7417 73.4711 22.5368C74.3235 22.3319 76.4392 23.0874 77.1241 22.8569C77.322 22.7929 77.5503 22.7545 77.7786 22.7289C77.7482 22.4728 77.7177 22.2167 77.6721 21.935V21.9606ZM221.022 16.3264C221.296 16.6209 221.661 16.877 222.057 17.1331C222.453 17.1971 222.773 17.3764 223.016 17.6325C225.862 18.9258 230.139 19.4124 231.357 18.6185C232.225 18.0423 232.59 16.9154 232.727 16.0063C231.829 14.6746 230.033 13.1892 226.441 12.216C223.747 11.4989 221.418 11.4477 219.561 12.0623C219.515 13.1508 219.683 14.9179 221.022 16.3264ZM201.037 33.0497C201.798 33.3954 204.34 32.7936 205.314 33.1393C206.288 33.4723 204.979 36.0204 205.573 38.082C205.801 38.8759 206.364 39.6955 206.973 40.3997C208.267 40.579 209.561 40.6174 210.642 40.3997C210.322 40.3357 210.109 40.2845 210.033 40.2333C208.617 39.5418 207.354 36.5198 207.689 33.9076C207.871 32.5631 208.678 31.5131 209.409 30.8088C210.124 30.1302 211.174 29.7716 212.255 29.8228C212.483 29.8228 212.742 29.8484 212.986 29.8613C212.346 29.3747 211.113 28.7088 208.906 28.4143C205.466 27.9533 201.539 28.8625 200.535 31.9485C200.428 32.2686 200.367 32.5503 200.276 32.8448C200.535 32.896 200.794 32.9729 201.007 33.0625L201.037 33.0497ZM327.34 223.152C328.664 222.704 330.064 220.63 330.658 219.324C329.303 219.067 326.975 218.683 324.463 218.312C324.555 219.093 324.539 219.913 324.402 220.783C324.281 221.539 324.037 222.256 323.733 222.922C325.346 223.05 326.762 223.127 327.355 223.152H327.34ZM94.7955 107.933C92.8625 107.741 90.8686 107.754 88.9051 108.01C86.8655 108.279 85.2521 108.74 83.5017 109.162C80.0922 110.059 76.911 111.032 73.7299 111.48C70.5487 111.954 67.398 111.839 64.3843 110.994C61.4162 110.187 58.4329 108.637 55.4344 107.19C54.4602 106.717 53.4861 106.243 52.4968 105.769C52.2989 105.679 52.101 105.577 51.8879 105.487C50.8377 105.001 49.7722 104.514 48.6763 104.053C47.7935 103.682 46.8955 103.336 45.9822 103.003C42.6641 101.825 38.9959 100.98 35.2516 101.147C31.5072 101.3 27.9608 102.478 24.9774 104.168C24.5969 104.386 24.4904 104.822 24.7491 105.142C24.9927 105.449 25.4797 105.539 25.845 105.359C28.7675 103.938 32.0247 103.106 35.282 103.144C38.5544 103.144 41.7508 104.028 44.7646 105.244C44.9016 105.295 45.0233 105.359 45.1603 105.423C48.037 106.627 50.7768 108.125 53.5623 109.662C54.3233 110.084 55.0995 110.507 55.8758 110.93C56.5912 111.314 57.3066 111.698 58.0372 112.069C58.7982 112.466 59.6201 112.825 60.4116 113.196C61.264 113.516 62.1164 113.887 63.0144 114.144C64.7952 114.72 66.6978 115.04 68.6157 115.219C70.5335 115.373 72.4513 115.283 74.3083 115.091C78.0374 114.669 81.4773 113.721 84.765 112.978C86.3784 112.62 88.0984 112.223 89.5291 112.095C91.0208 111.954 92.5429 111.992 94.0802 112.172C95.6023 112.351 97.1243 112.697 98.616 113.158C99.6814 113.491 100.793 113.913 101.767 114.348L103.441 110.123C102.436 109.713 101.417 109.354 100.351 109.034C98.5399 108.509 96.6677 108.125 94.7347 107.933H94.7955ZM83.5169 155.247C82.1013 154.441 80.6706 154.018 79.2703 154.044C72.1774 154.197 64.6582 165.863 65.1758 182.33C65.6933 198.797 73.9582 210.104 81.0511 209.938C83.0907 209.886 85.1455 208.875 87.0633 207.082C87.7787 205.891 89.2095 203.292 89.5444 201.012C89.9858 197.939 87.657 195.66 87.0177 195.404C86.3632 195.148 87.3526 192.651 87.9462 191.025C88.2506 190.192 88.5246 186.889 88.3419 183.098C88.1592 183.303 87.9766 183.495 87.7635 183.687C87.5504 189.859 85.3738 194.636 82.5428 194.7C79.4225 194.764 76.7284 189.117 76.5001 182.061C76.2718 175.018 78.6158 169.243 81.7361 169.179C82.6645 169.154 83.5473 169.653 84.3388 170.524L84.5671 169.948C82.2535 167.041 80.1227 167.617 79.5138 167.707C78.768 167.809 78.9811 164.621 78.2809 162.738C77.5807 160.856 74.0038 159.243 73.8821 158.705C73.7603 158.205 77.9613 153.096 83.5321 155.247H83.5169ZM84.2171 179.59L84.1409 179.756C84.0344 179.935 83.182 181.562 84.5823 182.317C85.039 182.292 86.2414 181.011 86.8807 179.654L100.062 146.438C99.2401 146.22 98.4486 145.925 97.7028 145.593L84.2018 179.59H84.2171ZM95.1609 140.394C96.6525 140.355 98.9204 140.496 101.812 141.341C104.43 142.11 105.952 142.98 106.835 143.659L128.906 88.0726C128.753 87.6757 128.023 86.344 124.294 84.8842C120.412 83.3604 117.84 84.4616 117.003 84.9354L95.0391 140.278C95.0391 140.278 95.1304 140.355 95.1609 140.394ZM91.31 21.6789C90.0467 21.2435 86.2414 21.013 82.4514 20.9106C82.7254 21.2179 82.9842 21.5764 83.0602 21.9222C83.2429 22.7289 85.039 23.2923 86.348 23.2283C87.657 23.1643 89.9249 22.4344 94.0497 25.7509C95.1152 26.6088 96.5612 27.8125 98.1289 29.1314C98.8443 28.8625 99.5597 28.632 100.275 28.4399C95.7545 24.7393 92.2232 22.0118 91.31 21.6917V21.6789ZM109.195 30.6424C108.083 30.4503 106.942 30.3606 105.8 30.3863C95.7088 30.6167 85.937 39.4906 83.0907 51.0535C81.4773 57.5968 82.1775 64.1017 85.0542 69.3774C87.7787 74.3713 92.1471 77.611 97.3526 78.5201C98.4638 78.7122 99.6053 78.8018 100.747 78.7762C100.762 78.7762 100.793 78.7762 100.808 78.7762C91.6296 75.7286 85.6174 66.1377 86.8959 55.3559C88.3571 42.8711 99.0117 33.5363 110.686 34.4967C114.37 34.804 117.703 36.1101 120.504 38.1333C117.855 34.2277 113.959 31.4747 109.195 30.6424ZM109.803 58.2627C108.007 64.2298 110.93 70.0048 116.333 71.2213C119.666 67.6871 122.239 63.1542 123.487 58.109C124.187 55.2919 124.415 52.526 124.278 49.8754C123.867 49.7218 123.456 49.5681 123 49.4785C117.52 48.3132 111.615 52.2443 109.819 58.2499L109.803 58.2627ZM129.271 35.9692C129.179 35.8412 129.073 35.7131 128.966 35.5851C126.851 34.9704 124.75 34.3814 122.772 33.8692C125.816 37.2881 127.657 41.0912 128.297 45.2528C129.621 53.909 129.88 60.0041 122.33 71.6182C120.549 74.3585 118.205 76.4585 115.663 78.0848C115.663 78.0848 114.415 79.0579 113.03 79.5829C111.615 80.2872 110.169 80.889 108.738 81.3756C109.94 81.6189 112.619 82.3488 114.552 83.0147C114.933 82.7458 116.394 81.8238 118.692 81.4781C121.828 79.3653 125.146 76.3561 127.46 72.1817C133.654 61.0285 134.583 55.3816 134.096 49.376C133.533 42.3077 130.519 37.6467 129.256 35.982L129.271 35.9692ZM180.976 34.2277C186.319 30.9625 188.815 32.0765 190.322 32.307C191.829 32.5375 194.005 32.1277 194.355 31.2314C194.507 30.8472 194.858 30.4631 195.223 30.1558C190.824 29.7972 186.395 29.5924 184.857 29.9253C182.94 30.3606 170.93 37.8772 159.469 45.4833C160.093 45.765 160.961 46.098 161.691 46.0851C162.97 46.0595 175.634 37.493 180.976 34.2277ZM163.472 111.109C165.359 116.756 170.611 130.944 177.049 135.938C183.183 140.701 197.141 148.384 203.549 151.829C204.188 146.591 206.258 134.375 206.715 132.531C207.278 130.227 208.708 129.65 210.611 129.074C212.514 128.498 229.044 128.933 229.044 128.933C225.284 127.115 221.114 123.722 219.241 122.121C218.846 122.134 218.45 122.159 218.054 122.172C209.47 122.364 199.18 120.725 190.383 118.83C179.043 116.397 170.245 113.887 163.487 111.134L163.472 111.109ZM215.223 169.96C215.938 165.722 217.689 163.609 217.141 163.174C216.593 162.738 215.436 163.212 214.523 164.851C213.61 166.49 211.387 170.677 213.107 177.656C214.827 184.635 221.844 190.051 224.447 191.165C227.05 192.279 230.611 193.278 229.911 191.588C229.911 191.588 225.071 190.615 221.068 185.851C217.065 181.088 214.492 174.224 215.223 169.973V169.96ZM216.319 134.055C215.771 133.71 214.797 133.364 214.508 134.094C214.203 134.824 212.514 148.525 212.727 148.794C212.955 149.063 214.036 149.665 214.203 148.307C214.203 148.307 216.867 134.401 216.319 134.055ZM210.657 184.635C208.632 181.536 208.374 176.773 207.932 176.337C207.856 176.26 207.765 176.209 207.658 176.158C207.43 176.312 207.186 176.478 206.867 176.696C206.638 176.849 206.38 177.029 206.106 177.208C206.106 178.719 206.684 182.612 207.902 185.147C209.957 189.411 216.471 192.51 216.182 190C216.182 190 212.696 187.747 210.672 184.635H210.657ZM220.352 153.212C220.794 153.557 221.875 153.903 221.966 153.352C221.966 153.352 226.197 135.092 225.436 134.747C224.675 134.401 222.849 133.991 222.651 134.632C222.453 135.259 219.911 152.853 220.352 153.212ZM229.622 95.5764C223.64 85.1787 203.183 67.2774 189.819 60.7596C179.271 55.612 167.262 54.3572 163.67 54.0883C164.553 56.3035 164.979 58.5572 165.04 60.8493C165.131 63.8584 165.009 66.6883 164.553 69.3134C164.614 69.1981 164.659 69.1213 164.659 69.1213C165.39 70.5298 165.907 72.0152 166.273 73.539C171.28 74.1024 192.909 76.7402 196.243 80.6458C196.243 80.6458 178.495 77.2524 166.851 77.0348C167.064 79.314 167.019 81.5933 166.851 83.7574C172.011 84.1927 194.812 86.5489 210.185 95.0898C210.185 95.0898 213.229 96.6392 211.722 96.4983C211.722 96.4983 183.381 89.7629 166.136 89.8013C165.786 92.2983 165.496 94.2702 165.725 95.3715C166.486 98.9569 169.865 97.7916 169.865 97.7916C184.614 97.638 204.629 101.864 213.062 104.911C221.494 107.959 224.066 107.895 226.03 102.465C227.019 99.7123 226.593 96.8568 225.923 94.7056C227.4 96.9209 228.83 99.4947 229.485 101.94C230.901 107.165 231.753 114.028 222.955 118.612C222.103 118.881 221.205 119.112 220.307 119.291C225.101 118.958 228.617 117.908 230.627 116.128C234.934 112.312 236.41 107.357 229.637 95.5892L229.622 95.5764ZM252.727 171.433C252.453 171.164 252.179 170.895 251.89 170.639C251.586 170.37 251.281 170.114 250.946 169.858C250.733 169.691 250.52 169.525 250.292 169.371C249.896 169.077 249.5 168.795 249.074 168.513C248.815 168.347 248.542 168.193 248.283 168.027C248.054 167.963 247.826 167.899 247.643 167.848C246.274 167.438 245.162 166.81 244.31 166.016C243.853 165.824 243.382 165.658 242.91 165.479C241.205 165.018 239.044 164.429 236.608 163.776C236.487 163.75 236.365 163.712 236.228 163.699C228.009 162.265 221.935 163.212 220.611 166.887C219.287 170.562 219.82 177.298 224.964 182.701C229.074 187.017 234.98 190.346 240.84 190.961C241.144 190.986 241.449 191.012 241.753 191.025C241.875 191.025 241.981 191.037 242.103 191.037C242.362 191.037 242.621 191.05 242.864 191.037C243.062 191.037 243.275 191.037 243.473 191.025C243.656 191.025 243.854 191.012 244.036 190.999C244.447 190.973 244.843 190.922 245.254 190.858C246.061 190.73 246.806 190.576 247.522 190.41C247.902 190.32 248.252 190.218 248.618 190.103C248.892 190.026 249.166 189.949 249.424 189.859C249.866 189.706 250.292 189.539 250.703 189.373C250.809 189.334 250.901 189.283 250.992 189.245C251.449 189.04 251.875 188.822 252.271 188.592C254.66 187.183 255.985 185.275 256.563 182.906C256.563 182.906 257.872 179.385 255.558 175.095C255.437 174.865 255.3 174.634 255.163 174.404C255.01 174.148 254.843 173.892 254.66 173.635C254.265 173.085 253.823 172.56 253.351 172.048C253.153 171.83 252.925 171.612 252.712 171.407L252.727 171.433ZM262.149 131.622C261.22 132.263 260.322 133.3 259.698 134.977C257.781 140.15 253.899 161.56 253.549 163.584C253.336 164.8 253.808 165.786 254.645 166.631C258.755 167.502 263.26 168.309 264.128 168.296C265.528 168.27 267.324 167.835 268.07 165.965C270.81 155.235 275.163 137.782 275.239 136.399C275.208 135.541 274.204 133.914 271.601 133.21C269.836 132.736 265.832 132.096 262.149 131.635V131.622ZM296.457 208.286C296.442 208.606 296.396 208.926 296.365 209.246C298.101 209.361 299.942 209.502 301.799 209.643C302.028 207.62 302.226 205.533 302.378 203.317C303.565 186.21 294.828 165.722 280.353 162.713C275.452 165.671 271.16 171.087 268.009 178.117C272.21 179.846 279.607 185.288 282.21 187.273C283.839 185.429 285.65 184.392 287.507 184.481C293.245 184.737 297.264 195.404 296.457 208.298V208.286ZM305.681 203.484C305.528 205.635 305.346 207.786 305.117 209.925C307.401 210.117 309.638 210.322 311.693 210.501C311.86 208.747 311.997 206.98 312.043 205.187C312.15 200.347 311.784 195.673 311.038 191.268C309.395 187.068 305.209 177.246 303.671 176.734C302.515 176.363 301.206 176.517 300.338 176.696C304.509 185.16 306.259 195.276 305.696 203.471L305.681 203.484ZM298.39 106.589C300.49 106.947 302.941 108.509 303.656 111.058C304.113 112.671 303.671 114.515 303.291 115.655C304.098 115.591 304.767 115.514 305.102 115.398C305.894 115.104 305.985 114.515 305.665 111.39L305.62 111.006C305.376 108.522 304.128 106.448 302.012 104.924C299.608 103.836 276.259 103.067 268.435 103.247C267.826 103.259 267.324 103.285 266.913 103.311C266.304 103.349 265.772 103.375 265.269 103.387C268.831 104.13 274.326 105.283 276.533 105.756C279.927 106.486 284.341 109.226 285.513 110.955C286.685 112.684 286.989 117.127 288.572 116.423C290.155 115.719 291.13 111.109 290.612 109.764C290.094 108.433 288.451 107.254 287.933 106.32C287.416 105.385 296.274 106.268 298.359 106.627L298.39 106.589ZM331.632 160.241C332.804 160.216 334.174 159.46 334.6 159.55C335.026 159.627 335.179 164.48 335.27 167.361C335.361 170.242 335.59 180.845 333.9 181.6C333.9 181.6 333.885 181.6 333.87 181.6C335.62 181.19 336.153 180.512 336.153 180.499C338.603 176.568 337.036 159.678 336.32 157.808C335.742 156.771 328.755 148.525 327.157 147.116C326.29 147.001 323.778 146.924 321.358 146.886C325.042 157.527 328.375 172.598 329.745 179.231C330.034 177.208 330.247 174.724 329.988 172.957C329.456 169.461 327.005 159.627 327.096 159.358C327.188 159.089 330.445 160.267 331.617 160.241H331.632ZM321.937 173.674C322.652 176.657 323.23 179.654 324.189 182.676C325.255 185.723 327.264 188.515 330.262 190.5C330.475 190.64 330.78 190.615 330.947 190.436C331.115 190.256 331.084 190.013 330.886 189.872L330.841 189.834C328.253 187.926 326.488 185.173 325.711 182.343C324.965 179.436 324.478 176.389 323.915 173.392C322.789 167.361 321.586 161.304 319.486 155.363C317.477 149.37 313.641 143.71 308.633 139.062C304.935 135.63 300.566 132.698 295.696 130.483C295.559 131.417 295.209 132.403 294.463 133.236C298.786 135.272 302.758 137.91 306.152 140.983C308.542 143.134 310.673 145.49 312.469 148.025C314.265 150.561 315.65 153.263 316.792 156.093C319.075 161.765 320.551 167.732 321.937 173.687V173.674ZM315.681 226.251C317.355 225.7 320.612 223.575 321.115 220.412C321.678 216.891 319.562 214.445 317.142 213.817C306.563 212.78 295.117 211.858 289.668 211.653C290.46 212.127 291.221 212.78 291.86 213.702C294.128 217.019 292.773 219.887 293.108 220.079C293.428 220.271 318.299 220.86 318.421 221.731C318.497 222.32 317.553 224.689 315.696 226.251H315.681ZM287.066 247.955C290.779 248.007 294.402 246.508 297.735 243.627C298.025 243.064 298.101 242.539 297.735 242.168C296.579 240.977 294.204 241.847 294.204 241.847C294.204 241.847 298.725 237.699 299.608 235.253C300.079 233.921 300.003 232.743 299.821 231.924C296.183 239.735 290.353 245.471 280.825 246.969C282.941 247.597 285.254 247.943 287.066 247.968V247.955ZM275.787 244.549C286.426 244.498 293.519 239.402 297.766 228.21C295.239 228.018 292.758 227.813 290.551 227.596C288.755 229.939 286.715 231.271 284.615 231.181C281.89 231.066 279.562 228.582 277.948 224.638C274.341 225.892 268.344 225.316 264.843 224.817C267.157 233.307 270.992 240.247 275.802 244.549H275.787ZM196.456 209.348C202.011 211.666 218.313 213.536 233.153 215.124L235.908 215.418C249.485 216.865 281.129 220.233 284.021 220.169C284.052 220.169 284.067 220.169 284.097 220.169C285.513 220.053 286.35 218.542 286.304 217.198C286.274 216.34 285.833 215.751 285.528 215.444C278.283 214.88 215.345 209.899 205.025 207.274C193.929 204.431 191.448 194.533 193.838 186.543C195.588 180.665 201.813 176.517 204.812 174.519C205.299 174.199 205.847 173.828 205.954 173.725C208.069 171.523 206.699 170.088 205.466 169.192C203.381 167.681 200.017 169.077 194.568 173.725C191.174 176.619 187.369 183.15 186.867 192.817C186.456 200.5 190.048 206.685 196.456 209.348ZM204.447 187.273C204.447 187.273 202.635 185.557 202.072 183.214C201.859 182.304 201.722 181.408 201.616 180.665C201.022 181.216 200.428 181.805 199.88 182.42C200.078 183.175 200.322 183.943 200.581 184.52C201.189 185.851 203.944 189.437 204.431 187.26L204.447 187.273ZM176.273 208.888C178.693 210.975 183.822 212.166 187.628 212.793C188.145 212.883 188.389 212.281 187.917 212.089C184.081 210.565 178.845 207.415 177.003 201.333C174.599 193.419 178.206 183.278 179.835 179.334C180.048 178.821 179.317 178.412 178.83 178.77C176.501 180.46 172.498 184.097 171.022 190.013C168.891 198.554 172.148 205.366 176.273 208.913V208.888ZM156.227 143.108C157.353 143.224 164.949 140.074 165.07 138.998C165.07 138.998 153.852 113.887 152.391 113.516C150.93 113.145 145.877 115.283 145.725 115.693C145.572 116.103 155.085 142.993 156.212 143.108H156.227ZM140.504 56.995C142.406 56.4188 159.53 60.3499 160.093 62.7572C160.641 65.1133 160.337 75.178 154.233 80.5561C155.679 79.6854 156.501 78.9811 156.729 78.7762C160.458 74.6914 161.996 69.1725 161.737 60.9133C161.661 58.3779 161.098 56.0346 160.047 53.8578C158.48 52.7949 154.629 50.3236 150.991 49.0559C146.288 47.4041 140.017 47.0071 139.484 45.4065C138.951 43.8059 138.038 40.451 136.212 38.3253C135.998 38.082 135.801 37.8644 135.618 37.6595C134.994 37.4546 134.37 37.2369 133.746 37.032C135.298 39.7467 136.988 43.8059 137.429 49.1711C137.947 55.6248 136.973 61.656 130.488 73.3469C129.393 75.3317 128.099 77.0604 126.714 78.5842C129.514 76.753 132.939 73.6542 135.116 68.5707C139.286 58.7621 138.616 57.5712 140.519 56.9822L140.504 56.995ZM138.297 195.545C138.053 197.798 137.764 200.014 137.368 202.28C136.973 204.726 137.17 207.21 137.734 209.566C138.266 211.922 139.317 214.138 140.123 216.25C140.839 218.171 140.808 220.438 140.139 222.448V222.499C140.002 222.871 140.245 223.255 140.686 223.357C141.082 223.447 141.493 223.28 141.661 222.973C142.285 221.808 142.62 220.655 142.802 219.413C142.985 218.197 142.924 216.916 142.589 215.674C141.935 213.382 141.234 211.244 140.854 209.092C140.473 206.941 140.458 204.803 140.915 202.728C141.402 200.487 141.782 198.157 142.117 195.865C142.757 191.255 143.015 186.632 143.122 181.984C143.091 177.349 142.924 172.701 142.315 168.078C141.174 158.833 138.799 149.639 134.887 140.855C131.356 132.89 126.409 125.348 120.351 118.472L117.901 124.656C118.768 125.694 119.636 126.731 120.458 127.794C124.004 132.48 127.033 137.449 129.545 142.609C133.563 150.855 136.166 159.627 137.581 168.539C138.342 172.995 138.647 177.503 138.845 181.997C138.906 186.504 138.799 191.025 138.342 195.519L138.297 195.545ZM66.4239 242.654C71.6599 243.755 77.6264 244.306 82.1622 244.204C108.464 243.615 128.966 215.226 127.87 180.921C127.703 175.607 127.003 170.409 125.846 165.415C127.855 179.961 127.901 199.489 119.529 215.815C119.529 215.815 114.096 226.546 112.558 225.329C112.558 225.329 121.112 212.191 119.666 206.647C118.205 201.102 113.746 201.922 113.746 201.922C113.746 201.922 114.628 196.287 114.826 188.118C111.341 218.325 91.2948 241.655 66.3934 242.219L65.4345 242.244C65.7694 242.385 66.1042 242.513 66.4239 242.654ZM60.2594 239.594C61.9641 239.555 63.8668 239.504 64.9931 239.479L66.3021 239.44C92.6037 238.851 113.106 210.463 112.01 176.158C111.721 167.233 109.849 158.423 106.759 150.356C106.333 149.357 105.8 148.218 105.191 146.975C105.1 146.975 105.024 146.988 104.917 146.988C104.446 146.988 103.928 146.988 103.365 146.95L95.6022 166.49C97.2613 170.934 98.2964 176.081 98.4638 181.587C98.9965 198.567 91.2491 212.499 81.1425 212.729C71.0358 212.96 62.4055 199.386 61.8728 182.407C61.3401 165.427 69.0875 151.496 79.1942 151.265C83.0907 151.176 86.7741 153.16 89.864 156.592L94.8717 143.992C93.0604 142.75 91.9492 141.559 91.8579 141.469C91.5231 141.098 91.4165 140.611 91.5992 140.176L94.8717 131.955C93.243 130.278 91.4622 128.703 89.5139 127.358C80.6402 121.186 69.3311 121.186 63.2427 121.763C43.5926 130.406 29.9394 154.748 30.8375 183.124C31.629 208.196 43.5773 229.619 60.2594 239.607V239.594ZM126.379 88.4312C127.049 89.1355 105.648 139.164 105.648 139.164C103.882 140.829 103.898 137.679 104.491 136.309C105.085 134.952 122.01 88.969 122.939 87.8678C123.867 86.7665 125.709 87.7141 126.379 88.4184V88.4312ZM258.557 157.488C258.1 159.832 258.313 163.251 259.851 164.377C261.388 165.517 264.63 166.785 263.351 166.9C263.351 166.9 257.126 166.234 256.015 164.992C254.904 163.763 261.586 135.285 262.332 134.811C263.062 134.35 262.971 134.977 262.971 134.977C262.88 135.246 259.013 155.119 258.557 157.463V157.488Z" fill="#222222" stroke="#222222" stroke-width="6" mask="url(#path-2-inside-1_60_479)"/>
</g>
<defs>
<clipPath id="clip0_60_479">
<rect width="419" height="264" fill="white" transform="matrix(-1 0 0 1 419 0)"/>
</clipPath>
</defs>
</svg>
