<svg width="48" height="48" viewBox="0 0 48 48" fill="none" xmlns="http://www.w3.org/2000/svg">
<path d="M8.73187 42.4688V39.9969C8.74638 39.789 8.71637 39.5803 8.64389 39.3849C8.5714 39.1895 8.45808 39.0118 8.31149 38.8637C8.1649 38.7155 7.98841 38.6003 7.79378 38.5258C7.59916 38.4512 7.39089 38.419 7.18284 38.4314C6.91055 38.4136 6.63849 38.4692 6.39501 38.5924C6.15154 38.7156 5.94557 38.9018 5.79856 39.1317C5.66458 38.9087 5.47295 38.7259 5.24384 38.6027C5.01472 38.4794 4.75661 38.4202 4.49668 38.4314C4.27011 38.42 4.04448 38.468 3.84215 38.5706C3.63982 38.6732 3.4678 38.8268 3.34311 39.0164V38.5302H2.48615V42.4688H3.35131V40.2853C3.33261 40.1505 3.34398 40.0133 3.3846 39.8835C3.42522 39.7537 3.49409 39.6344 3.58626 39.5344C3.67843 39.4344 3.79161 39.356 3.91767 39.3049C4.04374 39.2538 4.17956 39.2312 4.31538 39.2388C4.88392 39.2388 5.17235 39.6096 5.17235 40.277V42.4688H6.03752V40.2853C6.02022 40.1508 6.03257 40.0141 6.07371 39.8849C6.11485 39.7557 6.18378 39.6371 6.27566 39.5374C6.36753 39.4376 6.48013 39.3592 6.60554 39.3077C6.73094 39.2561 6.86612 39.2326 7.00157 39.2388C7.58656 39.2388 7.8667 39.6096 7.8667 40.277V42.4688H8.73187ZM21.5364 38.5302H20.1357V37.3355H19.2705V38.5302H18.4713V39.313H19.2705V41.1093C19.2705 42.0238 19.6249 42.5677 20.6383 42.5677C21.0169 42.5689 21.3882 42.4632 21.7095 42.2628L21.4623 41.5295C21.2325 41.6666 20.9717 41.7431 20.7042 41.752C20.2758 41.752 20.1357 41.4882 20.1357 41.0928V39.313H21.5364V38.5302ZM28.8451 38.4314C28.6362 38.4252 28.4295 38.4755 28.2467 38.577C28.064 38.6785 27.9121 38.8275 27.8069 39.0081V38.5302H26.9582V42.4688H27.8151V40.2605C27.8151 39.6096 28.0953 39.2471 28.6557 39.2471C28.8389 39.2446 29.0209 39.2782 29.1912 39.346L29.4549 38.5384C29.2592 38.4684 29.053 38.4322 28.8451 38.4314ZM17.7956 38.8433C17.3106 38.5549 16.7529 38.4119 16.1889 38.4314C15.1918 38.4314 14.5492 38.9092 14.5492 39.692C14.5492 40.3347 15.0271 40.7303 15.9087 40.8538L16.3124 40.9115C16.7821 40.9773 17.0046 41.101 17.0046 41.3235C17.0046 41.6283 16.6914 41.8014 16.1065 41.8014C15.6359 41.8149 15.1744 41.6698 14.7963 41.3894L14.3926 42.0568C14.8917 42.4054 15.4896 42.5845 16.0982 42.5677C17.2353 42.5677 17.8944 42.0321 17.8944 41.2823C17.8944 40.5901 17.3754 40.2276 16.5185 40.104L16.1147 40.0463C15.7439 39.9969 15.4473 39.9228 15.4473 39.6591C15.4473 39.3707 15.7274 39.1976 16.1971 39.1976C16.6284 39.2041 17.0509 39.3204 17.4248 39.5355L17.7956 38.8433ZM40.7515 38.4314C40.5426 38.4252 40.3359 38.4755 40.1531 38.577C39.9704 38.6785 39.8185 38.8275 39.7133 39.0081V38.5302H38.8647V42.4688H39.7215V40.2605C39.7215 39.6096 40.0017 39.2471 40.562 39.2471C40.7453 39.2446 40.9273 39.2782 41.0976 39.346L41.3613 38.5384C41.1656 38.4684 40.9594 38.4322 40.7515 38.4314ZM29.7102 40.4994C29.6989 40.7769 29.7457 41.0537 29.8477 41.312C29.9497 41.5703 30.1046 41.8044 30.3026 41.9992C30.5005 42.194 30.737 42.3452 30.9968 42.4431C31.2567 42.541 31.5342 42.5835 31.8115 42.5677C32.3259 42.5936 32.8314 42.426 33.2286 42.098L32.8167 41.4059C32.5204 41.6317 32.1592 41.7559 31.7867 41.7602C31.4656 41.7407 31.164 41.5994 30.9435 41.3651C30.723 41.1308 30.6002 40.8212 30.6002 40.4995C30.6002 40.1778 30.723 39.8682 30.9435 39.6339C31.164 39.3996 31.4656 39.2583 31.7867 39.2388C32.1592 39.2431 32.5204 39.3673 32.8167 39.5932L33.2286 38.901C32.8314 38.573 32.3259 38.4055 31.8115 38.4314C31.5342 38.4156 31.2567 38.458 30.9969 38.5559C30.737 38.6538 30.5005 38.805 30.3026 38.9998C30.1047 39.1946 29.9498 39.4287 29.8477 39.6869C29.7457 39.9452 29.6989 40.222 29.7102 40.4994ZM37.7358 40.4994V38.5302H36.8789V39.0081C36.7326 38.8196 36.5433 38.6689 36.3268 38.5686C36.1104 38.4682 35.873 38.4212 35.6346 38.4314C35.1037 38.4574 34.603 38.6867 34.2364 39.0717C33.8698 39.4567 33.6654 39.9679 33.6654 40.4995C33.6654 41.0312 33.8698 41.5424 34.2364 41.9274C34.603 42.3124 35.1037 42.5417 35.6346 42.5677C35.873 42.5779 36.1104 42.5308 36.3268 42.4305C36.5433 42.3301 36.7326 42.1794 36.8789 41.9909V42.4688H37.7358V40.4994ZM34.547 40.4994C34.5603 40.267 34.6413 40.0436 34.7801 39.8567C34.9188 39.6697 35.1093 39.5275 35.3279 39.4476C35.5465 39.3676 35.7838 39.3533 36.0104 39.4066C36.237 39.4598 36.4431 39.5782 36.6032 39.7472C36.7634 39.9162 36.8706 40.1283 36.9116 40.3575C36.9526 40.5866 36.9257 40.8228 36.8341 41.0368C36.7425 41.2508 36.5903 41.4333 36.3962 41.5619C36.2021 41.6904 35.9746 41.7594 35.7418 41.7602C35.5786 41.7624 35.4168 41.7308 35.2664 41.6673C35.1161 41.6039 34.9805 41.5099 34.8683 41.3915C34.756 41.2731 34.6695 41.1327 34.6142 40.9791C34.5589 40.8256 34.536 40.6623 34.547 40.4994ZM24.2062 38.4314C23.6718 38.4595 23.169 38.6935 22.8034 39.0843C22.4378 39.475 22.2378 39.9922 22.2452 40.5273C22.2527 41.0624 22.4671 41.5738 22.8435 41.9542C23.2198 42.3346 23.7289 42.5545 24.2638 42.5677C24.8517 42.5884 25.4266 42.3918 25.8788 42.0156L25.4586 41.3812C25.1332 41.6419 24.7302 41.7869 24.3132 41.7931C24.0301 41.817 23.7488 41.7296 23.5289 41.5497C23.3089 41.3698 23.1677 41.1113 23.135 40.829H26.0601C26.0683 40.722 26.0766 40.6149 26.0766 40.4994C26.0684 39.2718 25.3103 38.4314 24.2062 38.4314ZM24.1896 39.1976C24.4485 39.1926 24.6988 39.2904 24.8856 39.4695C25.0725 39.6487 25.1808 39.8946 25.1867 40.1535H23.1432C23.1583 39.889 23.2762 39.641 23.4717 39.4624C23.6673 39.2837 23.9249 39.1887 24.1896 39.1976ZM45.6871 40.4994V36.9482H44.8302V39.0081C44.6839 38.8196 44.4946 38.6689 44.2782 38.5686C44.0617 38.4682 43.8244 38.4212 43.586 38.4314C43.055 38.4574 42.5544 38.6866 42.1878 39.0716C41.8211 39.4566 41.6167 39.9679 41.6167 40.4995C41.6167 41.0312 41.8211 41.5424 42.1878 41.9275C42.5544 42.3125 43.055 42.5417 43.586 42.5677C43.8244 42.5779 44.0617 42.5308 44.2782 42.4305C44.4946 42.3301 44.6839 42.1794 44.8302 41.9909V42.4688H45.6871V40.4994ZM47.1156 41.898C47.1688 41.8977 47.2216 41.9081 47.2706 41.9288C47.3178 41.9485 47.3608 41.9769 47.3973 42.0127C47.4335 42.0484 47.4625 42.0908 47.4826 42.1374C47.5032 42.1854 47.5139 42.2371 47.5139 42.2893C47.5139 42.3415 47.5032 42.3932 47.4826 42.4412C47.4624 42.4876 47.4334 42.5298 47.3973 42.5654C47.3607 42.6012 47.3177 42.6298 47.2706 42.6498C47.2217 42.6707 47.1689 42.6814 47.1156 42.681C47.0372 42.6818 46.9603 42.6595 46.8946 42.6168C46.8288 42.5742 46.777 42.5131 46.7458 42.4412C46.7252 42.3932 46.7146 42.3415 46.7146 42.2893C46.7146 42.2371 46.7252 42.1854 46.7458 42.1374C46.7659 42.0908 46.7947 42.0485 46.8307 42.0127C46.8672 41.9767 46.9104 41.9482 46.9579 41.9288C47.0079 41.9081 47.0615 41.8976 47.1156 41.898ZM47.1156 42.5946C47.1562 42.595 47.1964 42.5868 47.2337 42.5707C47.2695 42.5551 47.302 42.533 47.3296 42.5054C47.3865 42.4479 47.4184 42.3703 47.4184 42.2895C47.4184 42.2086 47.3865 42.131 47.3296 42.0736C47.3021 42.0461 47.2695 42.0241 47.2337 42.0089C47.1964 41.993 47.1562 41.985 47.1156 41.9854C47.0743 41.985 47.0334 41.993 46.9952 42.0089C46.9588 42.0239 46.9258 42.0459 46.8979 42.0736C46.8409 42.131 46.809 42.2086 46.809 42.2895C46.809 42.3703 46.8409 42.448 46.8979 42.5054C46.9258 42.5332 46.9589 42.5554 46.9952 42.5707C47.0333 42.5868 47.0743 42.5949 47.1156 42.5946ZM47.1386 42.1062C47.1772 42.1037 47.2154 42.1148 47.2467 42.1374C47.2591 42.1477 47.269 42.1607 47.2756 42.1754C47.2821 42.1902 47.2852 42.2062 47.2845 42.2224C47.285 42.2362 47.2825 42.2499 47.2773 42.2627C47.2721 42.2755 47.2643 42.2871 47.2543 42.2966C47.2304 42.3178 47.2002 42.3305 47.1684 42.3327L47.2874 42.4699H47.1944L47.084 42.3336H47.0485V42.4699H46.9708V42.1062H47.1386ZM47.0485 42.1744V42.2713H47.1377C47.1549 42.2722 47.1719 42.268 47.1867 42.2592C47.1927 42.2552 47.1975 42.2497 47.2007 42.2432C47.2039 42.2368 47.2053 42.2296 47.2049 42.2224C47.2053 42.2153 47.2038 42.2082 47.2006 42.2019C47.1974 42.1956 47.1926 42.1902 47.1867 42.1863C47.1719 42.1777 47.1549 42.1735 47.1377 42.1744H47.0485ZM42.4984 40.4994C42.5117 40.267 42.5927 40.0436 42.7315 39.8567C42.8703 39.6698 43.0607 39.5276 43.2793 39.4477C43.4979 39.3677 43.7352 39.3535 43.9618 39.4067C44.1884 39.46 44.3945 39.5784 44.5546 39.7473C44.7147 39.9163 44.8219 40.1284 44.8629 40.3576C44.9039 40.5867 44.8769 40.8229 44.7853 41.0369C44.6937 41.2509 44.5415 41.4334 44.3474 41.5619C44.1533 41.6904 43.9259 41.7594 43.6931 41.7602C43.5299 41.7624 43.3681 41.7307 43.2178 41.6673C43.0674 41.6038 42.9319 41.5099 42.8196 41.3915C42.7074 41.273 42.6209 41.1326 42.5656 40.9791C42.5103 40.8256 42.4874 40.6623 42.4984 40.4994ZM13.5604 40.4994V38.5302H12.7034V39.0081C12.5572 38.8196 12.3679 38.6689 12.1514 38.5686C11.9349 38.4682 11.6976 38.4212 11.4592 38.4314C10.9282 38.4574 10.4276 38.6867 10.061 39.0717C9.69442 39.4567 9.48995 39.9679 9.48995 40.4995C9.48995 41.0312 9.69442 41.5424 10.061 41.9274C10.4276 42.3124 10.9282 42.5417 11.4592 42.5677C11.6976 42.5779 11.9349 42.5308 12.1514 42.4305C12.3679 42.3301 12.5572 42.1794 12.7034 41.9909V42.4688H13.5604V40.4994ZM10.3716 40.4994C10.3849 40.267 10.466 40.0436 10.6048 39.8567C10.7435 39.6698 10.934 39.5276 11.1526 39.4477C11.3712 39.3677 11.6084 39.3535 11.835 39.4067C12.0617 39.46 12.2677 39.5784 12.4279 39.7473C12.588 39.9163 12.6951 40.1284 12.7361 40.3576C12.7771 40.5867 12.7502 40.8229 12.6586 41.0369C12.567 41.2509 12.4148 41.4334 12.2207 41.5619C12.0266 41.6905 11.7991 41.7594 11.5664 41.7602C11.4032 41.7624 11.2413 41.7307 11.091 41.6673C10.9407 41.6038 10.8051 41.5099 10.6929 41.3915C10.5806 41.273 10.4941 41.1326 10.4388 40.9791C10.3836 40.8256 10.3607 40.6623 10.3716 40.4994Z" fill="white"/>
<path d="M30.4901 8.51416H17.5107V31.8385H30.4901V8.51416Z" fill="#FF5F00"/>
<path d="M18.3347 20.1773C18.3327 17.931 18.8417 15.7137 19.8233 13.6932C20.8049 11.6727 22.2332 9.90202 24.0003 8.51517C21.812 6.79515 19.184 5.7255 16.4166 5.42847C13.6491 5.13144 10.854 5.61902 8.35054 6.83547C5.84712 8.05193 3.73644 9.94818 2.25976 12.3075C0.783091 14.6668 0 17.394 0 20.1773C0 22.9606 0.783091 25.6878 2.25976 28.0472C3.73644 30.4065 5.84712 32.3027 8.35054 33.5192C10.854 34.7356 13.6491 35.2232 16.4166 34.9262C19.184 34.6292 21.812 33.5595 24.0003 31.8395C22.2333 30.4526 20.8049 28.6819 19.8233 26.6614C18.8417 24.6409 18.3327 22.4236 18.3347 20.1773Z" fill="#EB001B"/>
<path d="M48 20.1773C48.0001 22.9606 47.2172 25.6878 45.7406 28.0471C44.264 30.4064 42.1534 32.3027 39.65 33.5191C37.1466 34.7356 34.3515 35.2232 31.5841 34.9262C28.8167 34.6292 26.1887 33.5595 24.0005 31.8395C25.766 30.4512 27.1933 28.6802 28.1747 26.6601C29.1561 24.6399 29.666 22.4233 29.666 20.1773C29.666 17.9314 29.1561 15.7148 28.1747 13.6946C27.1933 11.6744 25.766 9.90342 24.0005 8.51517C26.1887 6.79515 28.8167 5.72549 31.5841 5.42846C34.3515 5.13144 37.1466 5.61903 39.65 6.8355C42.1534 8.05197 44.264 9.94823 45.7406 12.3075C47.2172 14.6669 48.0001 17.394 48 20.1773Z" fill="#F79E1B"/>
<path d="M46.5849 29.3687V28.8912H46.7774V28.7939H46.287V28.8912H46.4797V29.3687H46.5849ZM47.5369 29.3687V28.793H47.3866L47.2137 29.189L47.0408 28.793H46.8904V29.3687H46.9965V28.9344L47.1586 29.3089H47.2687L47.4308 28.9335V29.3687H47.5369Z" fill="#F79E1B"/>
</svg>
