<svg width="48" height="48" viewBox="0 0 48 48" fill="none" xmlns="http://www.w3.org/2000/svg">
<path fill-rule="evenodd" clip-rule="evenodd" d="M4.43871 17.4397C4.86754 17.4372 6.14199 17.3224 6.68182 19.1443C7.04545 20.3716 7.62471 22.3819 8.41957 25.1753H8.74329C9.59571 22.2303 10.1813 20.22 10.5 19.1443C11.0455 17.3034 12.4091 17.4398 12.9545 17.4398L17.1629 17.4398V30.5307H12.8736V22.816H12.586L10.195 30.5307H6.96788L4.57685 22.8103H4.28923V30.5307H0V17.4398L4.43871 17.4397ZM23.3221 17.4398V25.1602H23.6643L26.5727 18.8117C27.1373 17.5484 28.3406 17.4398 28.3406 17.4398H32.4913V30.5307H28.1125V22.8103H27.7704L24.9189 29.1587C24.3543 30.4163 23.094 30.5307 23.094 30.5307H18.9433V17.4398H23.3221ZM47.6264 23.6607C47.0156 25.3915 45.0975 26.6311 42.9738 26.6311H38.3818V30.5307H34.2178V23.6607H47.6264Z" fill="#0F754E"/>
<path fill-rule="evenodd" clip-rule="evenodd" d="M43.1747 17.4399H33.9995C34.2178 20.3544 36.7277 22.8494 39.3259 22.8494H47.9158C48.4115 20.4271 46.705 17.4399 43.1747 17.4399Z" fill="url(#paint0_linear_6_2671)"/>
<defs>
<linearGradient id="paint0_linear_6_2671" x1="48" y1="20.8427" x2="33.9995" y2="20.8427" gradientUnits="userSpaceOnUse">
<stop stop-color="#1F5CD7"/>
<stop offset="1" stop-color="#02AEFF"/>
</linearGradient>
</defs>
</svg>
