<svg width="24" height="24" viewBox="0 0 24 24" fill="none" xmlns="http://www.w3.org/2000/svg">
<g clip-path="url(#clip0_6_2650)">
<path d="M8.50693 0.594238H15.5049C21.897 0.594238 23.4059 2.11503 23.4059 8.50711V15.5051C23.4059 21.8972 21.8851 23.4061 15.4931 23.4061H8.49505C2.10297 23.4061 0.594055 21.8853 0.594055 15.4932V8.49523C0.594055 2.11503 2.11485 0.594238 8.50693 0.594238Z" fill="#5181B8"/>
<mask id="mask0_6_2650" style="mask-type:luminance" maskUnits="userSpaceOnUse" x="0" y="0" width="24" height="24">
<path d="M8.50693 0.594238H15.5049C21.897 0.594238 23.4059 2.11503 23.4059 8.50711V15.5051C23.4059 21.8972 21.8851 23.4061 15.4931 23.4061H8.49505C2.10297 23.4061 0.594055 21.8853 0.594055 15.4932V8.49523C0.594055 2.11503 2.11485 0.594238 8.50693 0.594238Z" fill="white"/>
</mask>
<g mask="url(#mask0_6_2650)">
<path d="M0 0H24V24H0V0Z" fill="#5181B8"/>
</g>
<path fill-rule="evenodd" clip-rule="evenodd" d="M19.2713 8.44774C19.3782 8.0913 19.2713 7.8418 18.7723 7.8418H17.1089C16.6812 7.8418 16.4911 8.06754 16.3842 8.31704C16.3842 8.31704 15.5406 10.3844 14.3406 11.7151C13.9485 12.1071 13.7822 12.226 13.5683 12.226C13.4614 12.226 13.3069 12.1071 13.3069 11.7507V8.44774C13.3069 8.02001 13.1881 7.8418 12.8317 7.8418H10.2178C9.95643 7.8418 9.7901 8.04378 9.7901 8.22199C9.7901 8.62595 10.3842 8.72101 10.4554 9.83784V12.2854C10.4554 12.82 10.3604 12.9151 10.1465 12.9151C9.58812 12.9151 8.2099 10.8477 7.40198 8.4715C7.23564 8.0319 7.08119 7.8418 6.65346 7.8418H4.9901C4.51485 7.8418 4.4198 8.06754 4.4198 8.31704C4.4198 8.75665 4.97822 10.9428 7.04554 13.8299C8.42376 15.8022 10.3604 16.8715 12.1188 16.8715C13.1762 16.8715 13.3069 16.6339 13.3069 16.2299V14.7329C13.3069 14.2576 13.402 14.1626 13.7465 14.1626C13.996 14.1626 14.4119 14.2814 15.398 15.2319C16.5267 16.3606 16.7168 16.8715 17.3465 16.8715H19.0099C19.4851 16.8715 19.7228 16.6339 19.5802 16.1705C19.4257 15.7071 18.8911 15.0299 18.1782 14.222C17.7861 13.7586 17.204 13.2715 17.0376 13.022C16.7881 12.7012 16.8594 12.5586 17.0376 12.2854C17.0376 12.2735 19.0693 9.42199 19.2713 8.44774Z" fill="white"/>
</g>
<defs>
<clipPath id="clip0_6_2650">
<rect width="24" height="24" fill="white"/>
</clipPath>
</defs>
</svg>
