<svg width="24" height="24" fill="none" xmlns="http://www.w3.org/2000/svg"><path d="M.611.082C.313.232.001.692 0 .983c0 .212.121.489.303.692.304.338.22.325 2.163.325 1.08 0 1.77.016 1.866.043.084.023.204.09.268.149.109.101.242.588 2.2 8.028 2.258 8.577 2.115 8.091 2.44 8.266.133.071.352.074 5.402.074h5.262l.181-.115a.729.729 0 0 0 .244-.25C20.479 17.878 24 7.05 24 6.908c0-.296-.287-.665-.64-.825-.179-.081-.225-.081-7.843-.082L7.853 6l-.589-2.33c-.424-1.676-.625-2.402-.716-2.588C6.314.607 5.879.264 5.29.092 5.09.033 4.781.023 2.92.011.803-.003.778-.002.611.082M21.583 8.07l-1.325 4.23c-.717 2.288-1.317 4.174-1.333 4.19-.016.017-1.818.026-4.005.02l-3.976-.01-1.11-4.16-1.133-4.25L8.678 8h6.464c6.137 0 6.462.004 6.441.07M10.645 20.161c-.522.077-1.115.517-1.356 1.007-.158.321-.207.536-.208.918-.004 1.227 1.141 2.154 2.291 1.854.864-.225 1.431-.969 1.431-1.88 0-1.192-.998-2.07-2.158-1.899m6.743.002c-.775.116-1.424.8-1.553 1.638-.056.361.016.797.191 1.156.134.276.566.716.824.839.758.363 1.568.228 2.15-.36a1.952 1.952 0 0 0 .014-2.719 1.827 1.827 0 0 0-1.626-.554" fill="#fff" fill-rule="evenodd"/></svg>