<svg width="24" height="24" fill="none" xmlns="http://www.w3.org/2000/svg"><path d="M11.5 1.026c-.851.069-1.451.152-2 .278-2.063.473-3.728 1.402-5.261 2.935C3.333 5.146 2.731 5.962 2.203 7 .783 9.793.64 13.222 1.82 16.16c.557 1.387 1.397 2.625 2.525 3.721.589.572.969.882 1.591 1.296 2.272 1.515 5.176 2.114 7.944 1.639 2.301-.394 4.224-1.392 5.884-3.052 1.094-1.094 1.877-2.262 2.416-3.604.597-1.485.893-3.311.781-4.802-.183-2.412-.966-4.46-2.385-6.238-.349-.437-1.259-1.347-1.696-1.696a11.002 11.002 0 0 0-5.26-2.28c-.763-.113-1.603-.159-2.12-.118m1.74 2.075c2.116.322 3.751 1.153 5.204 2.645.724.742 1.192 1.4 1.619 2.274.691 1.415 1.04 3.212.901 4.64-.129 1.329-.389 2.277-.922 3.36-.448.912-.885 1.518-1.652 2.295-.79.8-1.443 1.273-2.41 1.746-1.886.921-3.882 1.153-6 .698-1.196-.258-2.551-.893-3.48-1.631-1.149-.913-1.978-1.932-2.576-3.168a9.019 9.019 0 0 1-.78-5.48 8.63 8.63 0 0 1 .814-2.5A8.877 8.877 0 0 1 7.98 3.957a8.628 8.628 0 0 1 2.52-.816 9.116 9.116 0 0 1 2.74-.04m.626 5.653-3.274 3.275 2.267 2.255a208.006 208.006 0 0 0 2.295 2.266c.014.006.341-.306.726-.693l.7-.704-1.571-1.546c-.864-.851-1.57-1.565-1.57-1.587.001-.022 1.153-1.192 2.561-2.6l2.56-2.559-.69-.691c-.379-.379-.698-.69-.71-.69-.011 0-1.494 1.473-3.294 3.274" fill-rule="evenodd" fill="#000"/></svg>