<svg width="25" height="24" fill="none" xmlns="http://www.w3.org/2000/svg"><path d="M3.546 5.045c-.569.112-1.119.559-1.404 1.143l-.163.333-.011 5.375c-.011 5.271-.01 5.38.072 5.646.21.682.885 1.287 1.58 1.416.308.058 17.327.058 17.635 0 .715-.132 1.416-.78 1.597-1.477.057-.218.065-.885.064-5.479 0-4.231-.011-5.271-.056-5.439-.201-.754-.861-1.385-1.586-1.518-.303-.055-17.446-.055-17.728 0m17.629 1.007c.057.045-.551.577-4.315 3.779-2.409 2.05-4.399 3.728-4.421 3.729-.046.001-8.682-7.483-8.686-7.529C3.751 6.014 7.656 6 12.43 6c6.88 0 8.693.011 8.745.052M5.93 9.26c1.59 1.381 2.895 2.528 2.902 2.548.007.02-1.298 1.262-2.899 2.759-2.484 2.324-2.917 2.712-2.953 2.65-.048-.08-.087-9.76-.042-10.207.015-.143.044-.26.065-.26.021 0 1.338 1.13 2.927 2.51m16.019 2.883c-.008 3.33-.026 5.027-.054 5.075-.037.061-.458-.319-2.917-2.638-1.581-1.491-2.874-2.73-2.874-2.755 0-.024 1.303-1.154 2.896-2.512l2.896-2.467.032.147c.018.081.027 2.399.021 5.15M10.81 13.499c.632.55 1.21 1.031 1.283 1.069.17.088.516.089.684.002.072-.037.659-.518 1.305-1.069.647-.55 1.189-1.001 1.206-1.001.038 0 5.77 5.405 5.788 5.459.009.027-2.983.041-8.638.041-5.729 0-8.649-.014-8.639-.042.017-.051 5.795-5.458 5.833-5.458.016 0 .546.45 1.178.999" fill-rule="evenodd" fill="#000"/></svg>