<svg width="24" height="24" fill="none" xmlns="http://www.w3.org/2000/svg"><path d="M8.42 1.023c-.066.009-.291.037-.5.061a8.724 8.724 0 0 0-1.8.456 8.014 8.014 0 0 0-5.028 6.28c-.093.598-.093 1.762 0 2.36.551 3.531 3.311 6.257 6.828 6.745.489.068 1.671.068 2.16 0a8.206 8.206 0 0 0 3.42-1.322l.4-.275 3.69 3.686 3.69 3.686.71-.71.71-.71-3.686-3.69-3.686-3.69.275-.4a7.814 7.814 0 0 0 1.136-2.518c.185-.726.239-1.17.239-1.982s-.054-1.256-.239-1.982a7.988 7.988 0 0 0-6.521-5.919c-.389-.06-1.559-.11-1.798-.076m1.304 2.021c.733.095 1.39.303 2.068.656.558.291.977.6 1.442 1.066a5.89 5.89 0 0 1 1.584 2.793 5.965 5.965 0 0 1-.199 3.542 7.43 7.43 0 0 1-.764 1.423 7.356 7.356 0 0 1-1.331 1.331 6.006 6.006 0 0 1-4.965.963 6.265 6.265 0 0 1-2.083-.963 7.356 7.356 0 0 1-1.331-1.331A6.159 6.159 0 0 1 3 9c0-.97.231-1.891.7-2.792.291-.558.6-.977 1.066-1.442A5.969 5.969 0 0 1 8.16 3.06a6.763 6.763 0 0 1 1.564-.016" fill-rule="evenodd" fill="#000"/></svg>