<svg width="25" height="24" fill="none" xmlns="http://www.w3.org/2000/svg"><path d="M6.175 1.561a2.679 2.679 0 0 0-.982.457c-.38.274-2.149 2.071-2.398 2.437-.476.698-.662 1.541-.584 2.655.255 3.674 3.642 8.877 7.789 11.966 2.211 1.646 4.677 2.852 6.658 3.255.857.175 1.418.204 2.055.108a3.663 3.663 0 0 0 1.709-.7c.374-.282 2.205-2.183 2.378-2.468.309-.511.435-1.179.328-1.738-.076-.392-.331-.88-.657-1.253-.156-.178-.902-.928-1.659-1.667-1.454-1.42-1.578-1.518-2.124-1.68-.364-.108-.959-.101-1.334.015-.515.16-.772.348-1.612 1.171l-.781.766-.241-.136c-1.708-.963-3.927-3.178-4.829-4.821l-.119-.218.755-.761c1.103-1.111 1.286-1.443 1.285-2.324-.001-.552-.058-.77-.322-1.229-.137-.24-.441-.565-1.714-1.834-1.649-1.645-1.794-1.763-2.359-1.941-.355-.111-.903-.137-1.242-.06m1.144 1.102c.262.122.407.255 1.769 1.621 1.718 1.721 1.725 1.73 1.725 2.341 0 .596-.055.677-1.233 1.85l-1.001.996.068.171c.266.675.979 1.789 1.642 2.566 1.366 1.603 2.859 2.843 4.366 3.629l.51.265.969-.962c.534-.529 1.05-1.012 1.148-1.073.253-.158.638-.248.911-.214.467.058.588.155 2.206 1.76 1.696 1.682 1.733 1.73 1.761 2.29a1.34 1.34 0 0 1-.233.874c-.063.094-.565.63-1.115 1.191-.988 1.006-1.005 1.021-1.395 1.211a3.335 3.335 0 0 1-.717.257c-2.031.403-5.924-1.279-9.054-3.911-.642-.54-1.805-1.696-2.352-2.337a27.83 27.83 0 0 1-1.775-2.355C4.368 11.071 3.53 9.152 3.263 7.667c-.098-.549-.097-1.509.003-1.875.163-.595.293-.772 1.377-1.87.552-.558 1.098-1.077 1.214-1.153.471-.306.957-.341 1.462-.106" fill-rule="evenodd" fill="#000"/></svg>