<svg width="24" height="24" fill="none" xmlns="http://www.w3.org/2000/svg"><path d="M5.426 1.062c-.853.192-1.2.439-2.588 1.845-.991 1.003-1.294 1.398-1.521 1.987-.62 1.609-.297 3.789.955 6.431 1.105 2.333 3.009 4.865 5.115 6.804 2.297 2.114 5.524 3.965 8 4.587 1.609.405 2.962.349 3.99-.166.584-.292.801-.476 1.978-1.68 1.059-1.083 1.278-1.367 1.464-1.901.189-.54.224-1.15.097-1.675-.07-.291-.29-.748-.504-1.048-.206-.289-3.06-3.139-3.366-3.361a3.266 3.266 0 0 0-1.039-.467 3.4 3.4 0 0 0-1.342.021c-.658.168-1.023.407-1.851 1.213-.558.543-.625.596-.705.558-.17-.079-.986-.672-1.408-1.024-1.041-.867-2.312-2.276-2.845-3.153l-.145-.239.601-.607c.679-.686.736-.752.943-1.091.408-.669.516-1.626.265-2.355a3.782 3.782 0 0 0-.539-.978c-.095-.123-.818-.863-1.607-1.645C7.719 1.476 7.49 1.301 6.74 1.093c-.314-.087-.993-.103-1.314-.031m.994 2.037c.234.108 3.018 2.885 3.143 3.134a.858.858 0 0 1 0 .783c-.113.231-.919 1.075-1.73 1.812l-.548.497.137.319c.631 1.475 1.55 2.74 3.063 4.216.338.33.841.781 1.116 1.002.586.471 1.484 1.079 1.892 1.284.158.078.464.243.68.364l.392.221 1.109-1.104c1.193-1.187 1.31-1.276 1.686-1.276.39 0 .469.063 2.023 1.621C20.935 17.527 21 17.609 21 17.992c0 .362-.123.527-1.199 1.608-1.083 1.087-1.195 1.17-1.792 1.323-1.022.261-2.823-.183-4.789-1.183a19.61 19.61 0 0 1-4.896-3.483C6.031 14.039 4.231 11.314 3.399 8.8c-.35-1.056-.481-2.11-.343-2.76.127-.601.21-.715 1.319-1.828C5.507 3.077 5.636 2.984 6.04 3.011c.121.008.292.047.38.088" fill-rule="evenodd" fill="#000"/></svg>