<svg width="24" height="25" fill="none" xmlns="http://www.w3.org/2000/svg"><path d="M10.42.564a9.37 9.37 0 0 0-6.418 3.719C2.785 5.912 2.175 7.544 2.031 9.55c-.179 2.488.586 4.863 2.22 6.89.258.32 7.193 7.48 7.245 7.48.02 0 6.277-6.404 6.718-6.875 1.408-1.506 2.293-3.217 2.621-5.065.511-2.878-.211-5.689-2.046-7.971a41.063 41.063 0 0 0-1.274-1.423l-.975-1.052-.02.212-.02.211-.19-.118c-.871-.544-2.097-.999-3.23-1.2-.396-.07-.691-.091-1.42-.101a14.112 14.112 0 0 0-1.24.026m2.146 2.021c2.442.337 4.542 1.916 5.674 4.264.742 1.539.946 3.244.594 4.971-.244 1.193-.895 2.503-1.726 3.47-.246.287-5.58 5.77-5.613 5.77-.032 0-5.363-5.49-5.607-5.775-1.586-1.846-2.21-4.272-1.723-6.705.307-1.541 1.271-3.193 2.475-4.246 1.636-1.43 3.742-2.051 5.926-1.749M10.52 5.651c0 .039-.022.078-.05.086-.776.225-1.297.497-1.817.949-1.369 1.188-1.873 3.051-1.309 4.841a4.497 4.497 0 0 0 1.693 2.271 4.386 4.386 0 0 0 5.477-.456c1.553-1.481 1.818-3.955.619-5.772-.189-.285-.716-.841-1.023-1.078A5.205 5.205 0 0 0 13 5.885c-.514-.188-1.111-.274-2.03-.295-.409-.009-.45-.003-.45.061m1.504 2.029c.482.122.791.296 1.136.641 1.368 1.365.701 3.788-1.15 4.18a2.365 2.365 0 0 1-2.722-1.461 2.662 2.662 0 0 1 .124-2.179c.15-.282.607-.762.875-.917.553-.32 1.154-.411 1.737-.264" fill-rule="evenodd" fill="#000"/></svg>